<svg xmlns="http://www.w3.org/2000/svg" viewBox="0 0 568.71 1328.12"><defs><style>.cls-1{fill:#fff;}.cls-2,.cls-8{fill:#4472c4;}.cls-3{font-size:20.71px;}.cls-11,.cls-12,.cls-3{font-family:NotoSansCJKjp-Regular-90ms-RKSJ-H, Noto Sans CJK JP;}.cls-4{font-size:30px;font-family:NotoSansCJKjp-Bold-90ms-RKSJ-H, Noto Sans CJK JP;}.cls-10,.cls-5{fill:#7bb657;}.cls-6,.cls-7{fill:#00b0f0;}.cls-10,.cls-7,.cls-8{font-size:20px;font-family:NotoSansCJKjp-Medium-90ms-RKSJ-H, Noto Sans CJK JP;}.cls-9{letter-spacing:0.25em;}.cls-11{font-size:17px;}.cls-12{font-size:15px;}</style></defs><g id="Layer_2" data-name="Layer 2"><g id="レイヤー_1" data-name="レイヤー 1"><rect class="cls-1" width="568.71" height="1328.12"/><polygon class="cls-2" points="198.39 781.79 226.6 739.46 206.96 739.46 206.96 664.06 189.83 664.06 189.83 739.46 170.18 739.46 198.39 781.79"/><text class="cls-3" transform="translate(253.57 720.83)">代理受領の場合</text></g><g id="_レイヤー_" data-name="&lt;レイヤー&gt;"><text class="cls-4" transform="translate(55.48 79.6)">通常のシェアードセイビング方式</text></g><g id="_2" data-name="2"><polygon class="cls-2" points="165.03 407.52 178.5 387.3 169.12 387.3 169.12 288.81 160.94 288.81 160.94 387.3 151.55 387.3 165.03 407.52"/><polygon class="cls-5" points="211.4 288.81 197.92 309.03 207.31 309.03 207.31 407.52 215.49 407.52 215.49 309.03 224.88 309.03 211.4 288.81"/><polygon class="cls-6" points="265.79 197.18 286.02 210.66 286.02 201.28 446.86 201.28 446.86 193.09 286.02 193.09 286.02 183.71 265.79 197.18"/><path class="cls-6" d="M499.69,242.37a4.23,4.23,0,0,0-.41-.36,4.59,4.59,0,0,0-.6-.35,3.06,3.06,0,0,0,1.65-2.83,3.67,3.67,0,0,0-.3-1.51,3.22,3.22,0,0,0-.82-1.16,3.73,3.73,0,0,0-1.3-.73,5.1,5.1,0,0,0-1.7-.26h-5.35v13.31h5.57a5.05,5.05,0,0,0,1.7-.27,3.64,3.64,0,0,0,1.29-.77,3.31,3.31,0,0,0,.81-1.19,4.21,4.21,0,0,0,.28-1.59,3.64,3.64,0,0,0-.2-1.27A3,3,0,0,0,499.69,242.37Zm-6.23-4.88H496a1.86,1.86,0,0,1,1.27.4,1.48,1.48,0,0,1,.46,1.13,1.45,1.45,0,0,1-.46,1.12,1.86,1.86,0,0,1-1.27.41h-2.54Zm4,8.23a1.74,1.74,0,0,1-1.27.44h-2.71v-3.27h2.71a1.78,1.78,0,0,1,1.27.43,1.77,1.77,0,0,1,0,2.4Z"/><path class="cls-6" d="M508.42,235.17l-4.84,13.31h2.71l.81-2.35h4.73l.78,2.35h2.71l-4.86-13.31Zm-.6,8.77,1.69-4.85,1.62,4.85Z"/><polygon class="cls-6" points="526.43 243.32 521.16 235.17 518.84 235.17 518.84 248.48 521.44 248.48 521.44 240.31 526.72 248.48 529.04 248.48 529.04 235.17 526.43 235.17 526.43 243.32"/><polygon class="cls-6" points="544.45 235.17 541.29 235.17 536.59 240.96 536.59 235.17 533.99 235.17 533.99 248.48 536.59 248.48 536.59 244.48 538.32 242.42 541.74 248.48 544.77 248.48 540.03 240.46 544.45 235.17"/><polygon class="cls-6" points="517.81 148.72 480.4 162.23 480.4 170.03 483.52 170.03 483.52 172.36 552.11 172.36 552.11 170.03 555.22 170.03 555.22 162.23 517.81 148.72"/><polygon class="cls-6" points="552.11 218.35 483.52 218.35 483.52 224.58 480.4 224.58 480.4 230.82 555.22 230.82 555.22 224.58 552.11 224.58 552.11 218.35"/><polygon class="cls-6" points="534.96 212.11 534.96 215.23 547.43 215.23 547.43 212.11 545.87 212.11 545.87 178.6 547.43 178.6 547.43 175.48 534.96 175.48 534.96 178.6 536.52 178.6 536.52 212.11 534.96 212.11"/><polygon class="cls-6" points="511.58 212.11 511.58 215.23 524.05 215.23 524.05 212.11 522.49 212.11 522.49 178.6 524.05 178.6 524.05 175.48 511.58 175.48 511.58 178.6 513.14 178.6 513.14 212.11 511.58 212.11"/><polygon class="cls-6" points="488.2 212.11 488.2 215.23 500.67 215.23 500.67 212.11 499.11 212.11 499.11 178.6 500.67 178.6 500.67 175.48 488.2 175.48 488.2 178.6 489.75 178.6 489.75 212.11 488.2 212.11"/><text class="cls-7" transform="translate(477.81 274.87)">金融機関</text><text class="cls-8" transform="translate(129.64 274.87)">ESC<tspan class="cls-9" x="37.08" y="0">O</tspan><tspan x="57.16" y="0">事業者</tspan></text><text class="cls-10" transform="translate(138.21 571.02)">建物所有者</text><path class="cls-2" d="M154,156.11v85h68.53v-85ZM217,235.61H192.33V219.16H184.1v16.45H159.43v-74H217Z"/><rect class="cls-2" x="167.66" y="169.82" width="8.22" height="8.22"/><rect class="cls-2" x="184.1" y="169.82" width="8.22" height="8.22"/><rect class="cls-2" x="200.55" y="169.82" width="8.22" height="8.22"/><rect class="cls-2" x="167.66" y="186.27" width="8.22" height="8.22"/><rect class="cls-2" x="184.1" y="186.27" width="8.22" height="8.22"/><rect class="cls-2" x="200.55" y="186.27" width="8.22" height="8.22"/><rect class="cls-2" x="167.66" y="202.71" width="8.22" height="8.22"/><rect class="cls-2" x="184.1" y="202.71" width="8.22" height="8.22"/><rect class="cls-2" x="200.55" y="202.71" width="8.22" height="8.22"/><rect class="cls-2" x="167.66" y="219.16" width="8.22" height="8.22"/><rect class="cls-2" x="200.55" y="219.16" width="8.22" height="8.22"/><text class="cls-11" transform="translate(330.83 183.42)">①融資</text><text class="cls-11" transform="translate(330.83 233.43)">④返済</text><path class="cls-5" d="M213.51,503.63c-4.67-1.75-11.48-6.85-11.48-10v-8.33c2.7-3,4.75-9.1,6-16,2.84-1,4.47-2.64,6.5-9.76,2.16-7.57-3.25-7.31-3.25-7.31,4.38-14.49-1.38-28.11-11-27.11-6.66-11.64-28.95,2.66-35.93,1.67a15.77,15.77,0,0,0,1.66,7c-2.43,4.61-1.49,13.81-.81,18.46-.4,0-5.29,0-3.21,7.31s3.65,8.74,6.5,9.76c1.22,6.91,3.27,13,6,16v8.33c0,3.17-7.23,8.52-11.48,10-8.77,3.09-30.33,12-28.94,28.61.34,4,22.29,8.14,54.23,8.14s53.9-4.14,54.24-8.14C243.84,515.59,222.23,506.89,213.51,503.63Z"/><text class="cls-11" transform="translate(10.03 362.02)">②ESC<tspan class="cls-9" x="47.99" y="0">O</tspan><tspan x="64.85" y="0">サービス</tspan></text><text class="cls-11" transform="translate(225.88 362.02)">③サービス料支払い</text><polygon class="cls-6" points="239.64 960.32 259.87 973.8 259.87 964.41 420.71 964.41 420.71 956.23 259.87 956.23 259.87 946.85 239.64 960.32"/><polygon class="cls-2" points="420.71 910.74 400.48 897.26 400.48 906.65 400.46 906.65 264.7 906.65 259.87 906.65 259.87 897.26 239.64 910.74 259.87 924.22 259.87 914.83 264.7 914.83 400.46 914.83 400.48 914.83 400.48 924.22 420.71 910.74"/><polygon class="cls-2" points="162.06 1112.6 175.54 1092.38 166.16 1092.38 166.16 1092.35 166.16 1035.9 166.16 1031.07 175.54 1031.07 162.06 1010.84 148.59 1031.07 157.97 1031.07 157.97 1035.9 157.97 1092.35 157.97 1092.38 148.59 1092.38 162.06 1112.6"/><polygon class="cls-5" points="491.66 1026.88 478.19 1047.1 487.57 1047.1 487.57 1204.45 259.87 1204.45 259.87 1195.06 239.64 1208.54 259.87 1222.02 259.87 1212.63 487.57 1212.63 493.27 1212.63 495.75 1212.63 495.75 1047.1 505.14 1047.1 491.66 1026.88"/><text class="cls-12" transform="translate(301.39 1194)">③サービス料の請求書</text><text class="cls-12" transform="translate(301.39 1241.85)">④サービス料の⽀払い</text><path class="cls-6" d="M473.54,955.92c-.14-.13-.28-.25-.41-.35a5.19,5.19,0,0,0-.61-.36,3,3,0,0,0,1.65-2.82,3.71,3.71,0,0,0-.29-1.52,3.27,3.27,0,0,0-.82-1.15,3.82,3.82,0,0,0-1.3-.73,5.09,5.09,0,0,0-1.7-.27h-5.35V962h5.57a5.09,5.09,0,0,0,1.7-.27,3.79,3.79,0,0,0,1.29-.77,3.4,3.4,0,0,0,.81-1.19,4.21,4.21,0,0,0,.28-1.59,3.64,3.64,0,0,0-.2-1.27A3.15,3.15,0,0,0,473.54,955.92ZM467.31,951h2.54a1.86,1.86,0,0,1,1.27.41,1.63,1.63,0,0,1,0,2.25,1.86,1.86,0,0,1-1.27.41h-2.54Zm4,8.24a1.78,1.78,0,0,1-1.27.44h-2.71v-3.27H470a1.78,1.78,0,0,1,1.27.43,1.5,1.5,0,0,1,.47,1.2A1.53,1.53,0,0,1,471.29,959.28Z"/><path class="cls-6" d="M482.27,948.72,477.43,962h2.71l.81-2.36h4.73l.78,2.36h2.71l-4.86-13.32Zm-.6,8.77,1.69-4.84,1.62,4.84Z"/><polygon class="cls-6" points="500.29 956.88 495.01 948.72 492.69 948.72 492.69 962.04 495.29 962.04 495.29 953.87 500.56 962.04 502.88 962.04 502.88 948.72 500.29 948.72 500.29 956.88"/><polygon class="cls-6" points="518.3 948.72 515.14 948.72 510.44 954.52 510.44 948.72 507.84 948.72 507.84 962.04 510.44 962.04 510.44 958.04 512.16 955.98 515.59 962.04 518.62 962.04 513.88 954.01 518.3 948.72"/><polygon class="cls-6" points="491.66 862.28 454.25 875.79 454.25 883.58 457.37 883.58 457.37 885.92 525.96 885.92 525.96 883.58 529.07 883.58 529.07 875.79 491.66 862.28"/><polygon class="cls-6" points="525.96 931.91 457.37 931.91 457.37 938.14 454.25 938.14 454.25 944.38 529.07 944.38 529.07 938.14 525.96 938.14 525.96 931.91"/><polygon class="cls-6" points="508.81 925.67 508.81 928.79 521.28 928.79 521.28 925.67 519.72 925.67 519.72 892.16 521.28 892.16 521.28 889.04 508.81 889.04 508.81 892.16 510.37 892.16 510.37 925.67 508.81 925.67"/><polygon class="cls-6" points="485.43 925.67 485.43 928.79 497.9 928.79 497.9 925.67 496.34 925.67 496.34 892.16 497.9 892.16 497.9 889.04 485.43 889.04 485.43 892.16 486.99 892.16 486.99 925.67 485.43 925.67"/><polygon class="cls-6" points="462.05 925.67 462.05 928.79 474.52 928.79 474.52 925.67 472.96 925.67 472.96 892.16 474.52 892.16 474.52 889.04 462.05 889.04 462.05 892.16 463.6 892.16 463.6 925.67 462.05 925.67"/><text class="cls-7" transform="translate(451.66 988.42)">金融機関</text><text class="cls-8" transform="translate(103.48 988.42)">ESC<tspan class="cls-9" x="37.08" y="0">O</tspan><tspan x="57.16" y="0">事業者</tspan></text><text class="cls-10" transform="translate(112.06 1284.57)">建物所有者</text><path class="cls-2" d="M127.8,869.67v85h68.53v-85Zm63.05,79.5H166.18V932.72H158v16.45H133.28v-74h57.57Z"/><rect class="cls-2" x="141.5" y="883.38" width="8.22" height="8.22"/><rect class="cls-2" x="157.95" y="883.38" width="8.22" height="8.22"/><rect class="cls-2" x="174.4" y="883.38" width="8.22" height="8.22"/><rect class="cls-2" x="141.5" y="899.82" width="8.22" height="8.22"/><rect class="cls-2" x="157.95" y="899.82" width="8.22" height="8.22"/><rect class="cls-2" x="174.4" y="899.82" width="8.22" height="8.22"/><rect class="cls-2" x="141.5" y="916.27" width="8.22" height="8.22"/><rect class="cls-2" x="157.95" y="916.27" width="8.22" height="8.22"/><rect class="cls-2" x="174.4" y="916.27" width="8.22" height="8.22"/><rect class="cls-2" x="141.5" y="932.72" width="8.22" height="8.22"/><rect class="cls-2" x="174.4" y="932.72" width="8.22" height="8.22"/><text class="cls-11" transform="translate(270.67 896.97)">②代理受領契約</text><text class="cls-12" transform="translate(249.79 1017.91)">⑤⼊⾦し<tspan class="cls-9" x="60" y="0">た</tspan><tspan x="78.75" y="0">ESC</tspan><tspan class="cls-9" x="106.09" y="0">O</tspan><tspan x="120.97" y="0">サービス料から</tspan><tspan x="0" y="24">⼯事費</tspan><tspan class="cls-9" x="45" y="24">分+</tspan><tspan x="75.82" y="24">その利</tspan><tspan class="cls-9" x="120.82" y="24">息</tspan><tspan x="139.57" y="24">+</tspan><tspan x="0" y="48">税⾦関係以外を⽀払う</tspan></text><path class="cls-5" d="M187.36,1217.19c-4.67-1.75-11.48-6.85-11.48-10v-8.33c2.7-3,4.75-9.1,6-16,2.84-1,4.47-2.65,6.5-9.76,2.16-7.57-3.25-7.32-3.25-7.32,4.38-14.48-1.38-28.1-11-27.1-6.66-11.64-28.95,2.66-35.94,1.66a15.71,15.71,0,0,0,1.67,7c-2.43,4.61-1.49,13.8-.81,18.45-.4,0-5.29,0-3.21,7.32,2,7.11,3.65,8.74,6.5,9.76,1.22,6.91,3.27,13,6,16v8.33c0,3.17-7.23,8.52-11.48,10-8.77,3.09-30.33,12-28.94,28.61.33,4,22.29,8.14,54.23,8.14s53.9-4.15,54.24-8.14C217.69,1229.14,196.08,1220.45,187.36,1217.19Z"/><text class="cls-12" transform="translate(36.18 1061.72)">①代理受領<tspan x="0" y="24">契約書の承認</tspan></text></g></g></svg>