<svg xmlns="http://www.w3.org/2000/svg" viewBox="0 0 929 627"><defs><style>.cls-1,.cls-23{fill:#fff;}.cls-2,.cls-3,.cls-4,.cls-5,.cls-6,.cls-7,.cls-8{fill:none;stroke-miterlimit:10;}.cls-2{stroke:#000;}.cls-2,.cls-5,.cls-6,.cls-7,.cls-8{stroke-width:2px;}.cls-3,.cls-6{stroke:#7800b9;}.cls-19,.cls-3,.cls-4{stroke-width:4px;}.cls-4,.cls-5,.cls-8{stroke:red;}.cls-4{stroke-dasharray:6 6 6 6;}.cls-5,.cls-6,.cls-7{stroke-dasharray:3 3 3 3 3 3;}.cls-7{stroke:#f7931e;}.cls-13,.cls-9{fill:red;}.cls-10{fill:#ff99bc;}.cls-11{writing-mode:tb;text-orientation:upright;glyph-orientation-vertical:0deg;}.cls-11,.cls-21{font-size:17px;}.cls-11,.cls-13,.cls-14,.cls-15,.cls-21,.cls-22{font-family:NotoSansCJKjp-Medium-90ms-RKSJ-H, Noto Sans CJK JP;}.cls-12{letter-spacing:-0.5em;}.cls-13,.cls-14,.cls-15,.cls-22{font-size:18px;}.cls-14{fill:#7800b9;}.cls-15{fill:#2e3192;}.cls-16{letter-spacing:0.25em;}.cls-17{font-size:22px;}.cls-17,.cls-19,.cls-20,.cls-23{font-family:NotoSansCJKjp-Bold-90ms-RKSJ-H, Noto Sans CJK JP;}.cls-18{fill:#ffc000;}.cls-19,.cls-20{font-size:21px;}.cls-19{stroke:#fff;stroke-linecap:round;stroke-linejoin:round;}.cls-23{font-size:24px;}.cls-24{letter-spacing:-0.2em;}</style></defs><g id="Layer_2" data-name="Layer 2"><g id="レイヤ_1" data-name="レイヤ− 1"><rect class="cls-1" width="929" height="627"/><polyline class="cls-2" points="53 112.36 53 524.23 895 524.23"/><polygon points="43.1 122 53 106.1 62.9 122 43.1 122"/><polygon points="883 514.1 898.9 524 883 533.9 883 514.1"/><path class="cls-3" d="M53,260.18H197.13V524S458,511,462,510s44-8,78-15,92-14,150-76,65-54,88-68,61.78-32.5,124.89-22.75"/><path class="cls-4" d="M197.13,460.81S296,466,329,442s34-40,45-72,26.89-69.15,104-77.58,421-26.27,421-26.27"/><line class="cls-5" x1="53" y1="483.5" x2="810.94" y2="483.5"/><line class="cls-6" x1="53" y1="460.5" x2="810.94" y2="460.5"/><line class="cls-5" x1="483.5" y1="173.5" x2="483.5" y2="521.12"/><line class="cls-7" x1="689.5" y1="173.5" x2="689.5" y2="521.12"/><line class="cls-6" x1="431.97" y1="521.12" x2="430.97" y2="232.11"/><line class="cls-7" x1="197.13" y1="260.18" x2="898.9" y2="260.18"/><line class="cls-8" x1="65.07" y1="149.71" x2="185.06" y2="149.71"/><path class="cls-9" d="M53,149.71c5.68,2.11,12.73,5.7,17.09,9.51l-3.44-9.51,3.44-9.51C65.73,144,58.68,147.61,53,149.71Z"/><path class="cls-9" d="M197.13,149.71c-5.68,2.11-12.72,5.7-17.09,9.51l3.44-9.51L180,140.2C184.41,144,191.45,147.61,197.13,149.71Z"/><line class="cls-8" x1="209.07" y1="149.71" x2="644.93" y2="149.71"/><path class="cls-9" d="M197,149.71c5.68,2.11,12.73,5.7,17.09,9.51l-3.44-9.51,3.44-9.51C209.73,144,202.68,147.61,197,149.71Z"/><path class="cls-9" d="M657,149.71c-5.68,2.11-12.73,5.7-17.09,9.51l3.44-9.51-3.44-9.51C644.27,144,651.32,147.61,657,149.71Z"/><polygon class="cls-10" points="287.5 490.5 258.5 461.5 229.5 490.5 244 490.5 244 519 273 519 273 490.5 287.5 490.5"/><text class="cls-11" transform="translate(31 210.97)">操業度（製品供給量など<tspan class="cls-12" x="0" y="187">）</tspan></text><text class="cls-13" transform="translate(821.63 490.26)">許容限界</text><text class="cls-13" transform="translate(487.63 546.26)">許容限界</text><text class="cls-14" transform="translate(419.63 546.26)">目標</text><text class="cls-14" transform="translate(821.63 465.26)">目標</text><text class="cls-15" transform="translate(821.63 252.26)">復旧</text><text class="cls-15" transform="translate(68.63 252.26)">100%</text><text class="cls-15" transform="translate(105.63 141.26)">事前</text><text class="cls-15" transform="translate(301.63 141.26)">事後（初動対<tspan class="cls-16" x="108" y="0">応&amp;</tspan><tspan x="147.69" y="0">事業継続対応</tspan><tspan class="cls-12" x="255.69" y="0">）</tspan></text><text class="cls-14" transform="translate(109.63 572.26)">現状の予想復旧曲線</text><text class="cls-13" transform="translate(109.63 598.26)">BC<tspan class="cls-16" x="23.63" y="0">P</tspan><tspan x="39.78" y="0">発動後の復旧曲線</tspan></text><path class="cls-3" d="M21,565h80.41"/><path class="cls-4" d="M21,592h80.41"/><path class="cls-10" d="M462,166H203a6,6,0,0,0-6,6v57a6,6,0,0,0,6,6H303.74L269.06,465.26,347.75,235H462a6,6,0,0,0,6-6V172A6,6,0,0,0,462,166Z"/><text class="cls-17" transform="translate(210.63 194.26)">許容限界以上のレベルで<tspan x="0" y="28">事業を継続させる</tspan></text><path class="cls-18" d="M745,166H532a6,6,0,0,0-6,6v57a6,6,0,0,0,6,6h58.74L554,325l80.75-90H745a6,6,0,0,0,6-6V172A6,6,0,0,0,745,166Z"/><text class="cls-17" transform="translate(539.63 194.26)">許容される時間内に<tspan x="0" y="28">操業度を復活させる</tspan></text><text class="cls-19" transform="translate(210.63 416.26)">重要不可の<tspan x="0" y="24">電源確保</tspan></text><text class="cls-20" transform="translate(210.63 416.26)">重要不可の<tspan x="0" y="24">電源確保</tspan></text><polygon class="cls-18" points="468 327.5 468 311 438 341 468 371 468 354.5 608 354.5 608 327.5 468 327.5"/><text class="cls-21" transform="translate(851.78 556.57)">時間軸</text><text class="cls-22" transform="translate(354.22 53.68)">太陽光発電や 蓄電池 から電力を供給することで<tspan class="cls-12" x="386.1" y="0">、</tspan><tspan x="-58.95" y="27">下記のように、事業の従来より早い復旧を図ることができます</tspan><tspan class="cls-12" x="445.05" y="27">。</tspan></text><polygon class="cls-9" points="194.58 14.26 203.58 36.43 223.01 28.67 225.64 41.12 257.93 30.05 242.53 49.79 282.76 47.79 252.42 61.33 272.32 67.74 251.67 73.37 286 89.91 242.53 84.7 248.21 96.28 225.64 93.36 226.77 110.78 203.58 98.06 192.42 119 179.69 98.06 159.67 106.81 157.63 93.36 121.87 104.87 140.74 84.7 118.64 82.7 131.59 73.37 92 66.08 131.59 61.11 115.03 50.28 140.74 49.79 117.19 30.05 157.63 41.12 156.5 23.7 179.69 36.43 194.58 14.26"/><text class="cls-23" transform="translate(139.4 75.26)">事象発<tspan class="cls-24" x="72" y="0">生</tspan><tspan x="91.2" y="0">！</tspan></text></g></g></svg>