<svg xmlns="http://www.w3.org/2000/svg" viewBox="0 0 1543 472"><defs><style>.cls-1,.cls-10,.cls-14,.cls-26,.cls-27,.cls-35,.cls-39{fill:#fff;}.cls-10,.cls-2,.cls-21,.cls-23,.cls-29,.cls-3,.cls-30,.cls-7,.cls-8{font-size:20px;}.cls-2,.cls-37{fill:#f7931e;}.cls-10,.cls-14,.cls-2,.cls-21,.cls-24,.cls-28,.cls-29,.cls-3,.cls-30,.cls-35,.cls-7,.cls-8{font-family:NotoSansCJKjp-Medium-90ms-RKSJ-H, Noto Sans CJK JP;}.cls-3,.cls-38{fill:#29abe2;}.cls-25,.cls-32,.cls-4,.cls-5,.cls-6{fill:none;}.cls-32,.cls-4,.cls-5,.cls-6{stroke:#004ebc;}.cls-25,.cls-26,.cls-27,.cls-32,.cls-34,.cls-39,.cls-4,.cls-5,.cls-6{stroke-miterlimit:10;}.cls-32,.cls-39,.cls-4,.cls-5,.cls-6{stroke-width:3px;}.cls-5{stroke-dasharray:11.78 11.78;}.cls-6{stroke-dasharray:11.67 11.67;}.cls-36,.cls-7,.cls-8{fill:#8cc63f;}.cls-7{letter-spacing:-0.1em;}.cls-9{fill:#0071bc;}.cls-11{font-size:14px;}.cls-12{letter-spacing:0.25em;}.cls-13{fill:#8ec0e1;}.cls-14{font-size:16px;}.cls-15,.cls-29{fill:#39b54a;}.cls-16{fill:#004ebc;}.cls-17,.cls-24,.cls-30{fill:#f172ab;}.cls-18{fill:#9363b1;}.cls-19{fill:#a9aaad;}.cls-20{fill:#d1d0d2;}.cls-22{letter-spacing:-0.5em;}.cls-23{font-family:NotoSansCJKjp-Bold-90ms-RKSJ-H, Noto Sans CJK JP;}.cls-24{font-size:15.8px;letter-spacing:-0.1em;}.cls-25,.cls-26,.cls-34{stroke:#000;}.cls-25{stroke-width:2px;}.cls-27{stroke:#666;}.cls-28,.cls-35{font-size:23px;}.cls-31{fill:red;}.cls-32{stroke-dasharray:11.56 11.56;}.cls-33{fill:#d7d7d9;}.cls-39{stroke:red;}</style></defs><g id="Layer_2" data-name="Layer 2"><g id="レイヤー_1" data-name="レイヤー 1"><rect class="cls-1" width="721" height="472"/><text class="cls-2" transform="translate(15.8 180.44)">太陽光発電</text><text class="cls-3" transform="translate(127.84 180.44)">風力発電</text><rect class="cls-1" x="21.5" y="195.5" width="330" height="257"/><polyline class="cls-4" points="351.5 446.5 351.5 452.5 345.5 452.5"/><line class="cls-5" x1="333.72" y1="452.5" x2="33.39" y2="452.5"/><polyline class="cls-4" points="27.5 452.5 21.5 452.5 21.5 446.5"/><line class="cls-6" x1="21.5" y1="434.83" x2="21.5" y2="207.33"/><polyline class="cls-4" points="21.5 201.5 21.5 195.5 27.5 195.5"/><line class="cls-5" x1="39.28" y1="195.5" x2="339.61" y2="195.5"/><polyline class="cls-4" points="345.5 195.5 351.5 195.5 351.5 201.5"/><line class="cls-6" x1="351.5" y1="213.17" x2="351.5" y2="440.67"/><text class="cls-7" transform="translate(35.82 440.67) scale(0.82 1)">見える化システム</text><text class="cls-8" transform="translate(65.5 272.67)">蓄電池</text><rect class="cls-9" x="182.5" y="253.5" width="150" height="178"/><text class="cls-10" transform="translate(236.74 282.67)">EMC<tspan class="cls-11"><tspan x="-51.27" y="15.72">(DC/D</tspan><tspan class="cls-12" x="-12.23" y="15.72">C</tspan><tspan x="0.32" y="15.72">コンバータ</tspan><tspan class="cls-12" x="70.32" y="15.72">ー</tspan><tspan x="87.82" y="15.72">)</tspan></tspan></text><rect class="cls-1" x="194.5" y="319.5" width="126" height="106"/><rect class="cls-13" x="206.5" y="332" width="102" height="34"/><rect class="cls-13" x="206.5" y="380" width="102" height="34"/><text class="cls-14" transform="translate(217.5 355.67)">インバータ</text><text class="cls-14" transform="translate(209.5 404.67)">システム制御</text><polygon class="cls-15" points="181.5 310 173.5 302 173.5 308 141.5 308 141.5 302 133.5 310 141.5 318 141.5 312 173.5 312 173.5 318 181.5 310"/><polygon class="cls-15" points="181.5 387 173.5 379 173.5 385 141.5 385 141.5 379 133.5 387 141.5 395 141.5 389 173.5 389 173.5 395 181.5 387"/><rect class="cls-16" x="39.5" y="211.5" width="203" height="36"/><text class="cls-10" transform="translate(71 235.67)">蓄電池システム</text><polygon class="cls-15" points="263.5 243.5 263.5 124.5 263.5 120.5 259.5 120.5 213.5 120.5 213.5 124.5 259.5 124.5 259.5 243.5 253.5 243.5 261.5 251.5 269.5 243.5 263.5 243.5"/><polygon class="cls-17" points="434.5 120.5 290.5 120.5 286.5 120.5 286.5 124.5 286.5 250.5 290.5 250.5 290.5 124.5 434.5 124.5 434.5 130.5 442.5 122.5 434.5 114.5 434.5 120.5"/><polygon class="cls-17" points="332.5 386.5 438.5 386.5 438.5 392.5 446.5 384.5 438.5 376.5 438.5 382.5 332.5 382.5 332.5 386.5"/><polygon class="cls-17" points="684.5 120 524.5 120 524.5 114 516.5 122 524.5 130 524.5 124 684.5 124 684.5 120"/><polygon class="cls-17" points="467.5 397.5 551.5 397.5 551.5 403.5 559.5 395.5 551.5 387.5 551.5 393.5 467.5 393.5 467.5 397.5"/><polygon class="cls-17" points="467.5 251 551.5 251 551.5 257 559.5 249 551.5 241 551.5 247 467.5 247 467.5 251"/><polygon class="cls-18" points="467.5 379.5 551.5 379.5 551.5 385.5 559.5 377.5 551.5 369.5 551.5 375.5 467.5 375.5 467.5 379.5"/><polygon class="cls-17" points="477.5 170.5 477.5 204.5 471.5 204.5 479.5 212.5 487.5 204.5 481.5 204.5 481.5 170.5 477.5 170.5"/><polygon class="cls-18" points="477.5 284.5 477.5 343.5 471.5 343.5 479.5 351.5 487.5 343.5 481.5 343.5 481.5 284.5 477.5 284.5"/><rect class="cls-19" x="681.5" y="65.5" width="7" height="123"/><polygon class="cls-19" points="693.5 76.5 693.5 72.5 690.5 72.5 690.5 76.5 678.5 76.5 678.5 72.5 675.5 72.5 675.5 76.5 672.5 76.5 672.5 78.5 695.5 78.5 695.5 76.5 693.5 76.5"/><polygon class="cls-19" points="693.5 83.5 693.5 79.5 690.5 79.5 690.5 83.5 678.5 83.5 678.5 79.5 675.5 79.5 675.5 83.5 672.5 83.5 672.5 85.5 695.5 85.5 695.5 83.5 693.5 83.5"/><rect class="cls-19" x="689.5" y="86.5" width="6" height="14"/><path d="M688.5,305.5v-21l-9.68-9h-6l-4.33,7.17v19.18l-4-.86V239.5h-9l-1.64,59.18-24.26-5.25V278.54l-3.85-2.29V269.5h0c-.38-5.29-6.7-9.5-14.46-9.5s-14.08,4.21-14.46,9.5h0V276H585.5a7.51,7.51,0,0,0-7.5,7.5v8.2a14,14,0,0,0-3.27,26.51l-4.23,7.25h6l3.51-6,.49,0,.49,0,3.51,6h6l-4.23-7.25a14,14,0,0,0,6.23-5.57V325.5h103v-20ZM585.5,281h11.25V301.5h-2.84A14,14,0,0,0,583,291.74v-8.2A2.5,2.5,0,0,1,585.5,281Z"/><path class="cls-20" d="M647,222.26a8,8,0,0,0,.51-2.76c0-6.08-6.94-11-15.5-11a21.31,21.31,0,0,0-5.69.77c-.95-3.28-5.65-5.77-11.31-5.77a19,19,0,0,0-2.65.19c-2-3.65-6.57-6.19-11.85-6.19-7.18,0-13,4.7-13,10.5,0,5.26,4.8,9.61,11.06,10.37a7,7,0,0,0,6.94,6.13A6.91,6.91,0,0,0,608,224c1.38,3.18,5.32,5.48,10,5.48a13.05,13.05,0,0,0,5.09-1,20,20,0,0,0,8.91,2,18.81,18.81,0,0,0,11.45-3.6c5,1.87,6.56,7.16,7,10.6C650.52,234.73,653.81,226.12,647,222.26Z"/><text class="cls-21" transform="translate(358.5 240.67)">放電指令</text><text class="cls-21" transform="translate(605.5 28.67)">蓄電枯渇時<tspan x="-10" y="24">（交流</tspan><tspan class="cls-22" x="50" y="24">）</tspan></text><text class="cls-23" transform="translate(449.5 447.67)">分電盤</text><text class="cls-21" transform="translate(559.5 447.67)">特定負荷設備</text><text class="cls-24" transform="translate(377.27 315.67)">デマンド<tspan x="-21.33" y="18">コントローラー</tspan></text><text class="cls-21" transform="translate(563.5 224.67)">一般負荷設備</text><rect class="cls-25" x="573.5" y="363.5" width="44" height="17"/><path class="cls-25" d="M628,380.5H563a1,1,0,0,0-.93,1.39L573.5,409h44l11.42-27.11A1,1,0,0,0,628,380.5Z"/><polygon class="cls-25" points="579.01 403.5 572.99 389.19 567.99 389.19 574.01 403.5 579.01 403.5"/><polygon class="cls-25" points="611.99 403.5 618.01 389.19 623.01 389.19 616.99 403.5 611.99 403.5"/><rect class="cls-25" x="577.5" y="383.5" width="36" height="5"/><rect x="582.5" y="402.5" width="26" height="6"/><line class="cls-25" x1="579.01" y1="391.4" x2="612.39" y2="391.4"/><line class="cls-25" x1="580.01" y1="394.4" x2="611.39" y2="394.4"/><line class="cls-25" x1="581.01" y1="397.4" x2="610.39" y2="397.4"/><line class="cls-25" x1="583.01" y1="400.4" x2="608.39" y2="400.4"/><rect class="cls-26" x="25.5" y="19.5" width="269" height="35"/><rect class="cls-27" x="321" y="20" width="227" height="35"/><text class="cls-28" transform="translate(35 45.67)">通常時システムフロー</text><rect class="cls-15" x="333.5" y="34.5" width="42" height="4"/><text class="cls-29" transform="translate(386 45.67)">直流</text><rect class="cls-17" x="438.5" y="34.5" width="42" height="4"/><rect class="cls-18" x="559.5" y="34.5" width="42" height="4"/><text class="cls-30" transform="translate(491 45.67)">交流</text><circle class="cls-31" cx="353" cy="261.5" r="4"/><circle class="cls-31" cx="365.5" cy="261.5" r="4"/><circle class="cls-31" cx="378" cy="261.5" r="4"/><circle class="cls-31" cx="390.5" cy="261.5" r="4"/><circle class="cls-31" cx="403" cy="261.5" r="4"/><circle class="cls-31" cx="415.5" cy="261.5" r="4"/><circle class="cls-31" cx="428" cy="261.5" r="4"/><circle class="cls-31" cx="440.5" cy="261.5" r="4"/><polygon class="cls-31" points="344 258.75 344 250.5 333 261.5 344 272.5 344 264.25 344 258.75"/><rect class="cls-1" x="822" width="721" height="472"/><text class="cls-2" transform="translate(837.8 180.44)">太陽光発電</text><text class="cls-3" transform="translate(949.84 180.44)">風力発電</text><rect class="cls-1" x="843.5" y="195.5" width="324" height="257"/><polyline class="cls-4" points="1167.5 446.5 1167.5 452.5 1161.5 452.5"/><line class="cls-32" x1="1149.94" y1="452.5" x2="855.28" y2="452.5"/><polyline class="cls-4" points="849.5 452.5 843.5 452.5 843.5 446.5"/><line class="cls-6" x1="843.5" y1="434.83" x2="843.5" y2="207.33"/><polyline class="cls-4" points="843.5 201.5 843.5 195.5 849.5 195.5"/><line class="cls-32" x1="861.06" y1="195.5" x2="1155.72" y2="195.5"/><polyline class="cls-4" points="1161.5 195.5 1167.5 195.5 1167.5 201.5"/><line class="cls-6" x1="1167.5" y1="213.17" x2="1167.5" y2="440.67"/><text class="cls-7" transform="translate(857.82 440.67) scale(0.82 1)">見える化システム</text><text class="cls-8" transform="translate(887.5 270.67)">蓄電池</text><rect class="cls-9" x="1004.5" y="253.5" width="150" height="178"/><text class="cls-10" transform="translate(1058.74 282.67)">EMC<tspan class="cls-11"><tspan x="-51.27" y="15.72">(DC/D</tspan><tspan class="cls-12" x="-12.23" y="15.72">C</tspan><tspan x="0.32" y="15.72">コンバータ</tspan><tspan class="cls-12" x="70.32" y="15.72">ー</tspan><tspan x="87.82" y="15.72">)</tspan></tspan></text><rect class="cls-1" x="1016.5" y="319.5" width="126" height="106"/><rect class="cls-13" x="1028.5" y="332" width="102" height="34"/><rect class="cls-13" x="1028.5" y="380" width="102" height="34"/><text class="cls-14" transform="translate(1039.5 355.67)">インバータ</text><text class="cls-14" transform="translate(1031.5 404.67)">システム制御</text><polygon class="cls-15" points="1003.5 308 995.5 300 995.5 306 963.5 306 963.5 300 955.5 308 963.5 316 963.5 310 995.5 310 995.5 316 1003.5 308"/><polygon class="cls-15" points="1003.5 387 995.5 379 995.5 385 963.5 385 963.5 379 955.5 387 963.5 395 963.5 389 995.5 389 995.5 395 1003.5 387"/><rect class="cls-16" x="856.5" y="206.5" width="203" height="36"/><text class="cls-10" transform="translate(888 230.67)">蓄電池システム</text><polygon class="cls-33" points="1506.5 120 1346.5 120 1346.5 114 1338.5 122 1346.5 130 1346.5 124 1506.5 124 1506.5 120"/><polygon class="cls-17" points="1289.5 386.5 1373.5 386.5 1373.5 392.5 1381.5 384.5 1373.5 376.5 1373.5 382.5 1289.5 382.5 1289.5 386.5"/><polygon class="cls-33" points="1289.5 251 1373.5 251 1373.5 257 1381.5 249 1373.5 241 1373.5 247 1289.5 247 1289.5 251"/><polygon class="cls-33" points="1299.5 170.5 1299.5 204.5 1293.5 204.5 1301.5 212.5 1309.5 204.5 1303.5 204.5 1303.5 170.5 1299.5 170.5"/><rect class="cls-19" x="1503.5" y="65.5" width="7" height="123"/><polygon class="cls-19" points="1515.5 76.5 1515.5 72.5 1512.5 72.5 1512.5 76.5 1500.5 76.5 1500.5 72.5 1497.5 72.5 1497.5 76.5 1494.5 76.5 1494.5 78.5 1517.5 78.5 1517.5 76.5 1515.5 76.5"/><polygon class="cls-19" points="1515.5 83.5 1515.5 79.5 1512.5 79.5 1512.5 83.5 1500.5 83.5 1500.5 79.5 1497.5 79.5 1497.5 83.5 1494.5 83.5 1494.5 85.5 1517.5 85.5 1517.5 83.5 1515.5 83.5"/><rect class="cls-19" x="1511.5" y="86.5" width="6" height="14"/><path d="M1510.5,305.5v-21l-9.68-9h-6l-4.33,7.17v19.18l-4-.86V239.5h-9l-1.64,59.18-24.26-5.25V278.54l-3.85-2.29V269.5h0c-.38-5.29-6.7-9.5-14.46-9.5s-14.08,4.21-14.46,9.5h0V276H1407.5a7.51,7.51,0,0,0-7.5,7.5v8.2a14,14,0,0,0-3.27,26.51l-4.23,7.25h6l3.51-6,.49,0,.49,0,3.51,6h6l-4.23-7.25a14,14,0,0,0,6.23-5.57V325.5h103v-20ZM1407.5,281h11.25V301.5h-2.84a14,14,0,0,0-10.91-9.76v-8.2A2.5,2.5,0,0,1,1407.5,281Z"/><path class="cls-20" d="M1469,222.26a8,8,0,0,0,.51-2.76c0-6.08-6.94-11-15.5-11a21.31,21.31,0,0,0-5.69.77c-1-3.28-5.65-5.77-11.31-5.77a19,19,0,0,0-2.65.19c-2-3.65-6.57-6.19-11.85-6.19-7.18,0-13,4.7-13,10.5,0,5.26,4.8,9.61,11.06,10.37a7,7,0,0,0,6.94,6.13A6.91,6.91,0,0,0,1430,224c1.38,3.18,5.32,5.48,10,5.48a13.05,13.05,0,0,0,5.09-1,20,20,0,0,0,8.91,2,18.81,18.81,0,0,0,11.45-3.6c5,1.87,6.56,7.16,7,10.6C1472.52,234.73,1475.81,226.12,1469,222.26Z"/><text class="cls-23" transform="translate(1271.5 447.67)">分電盤</text><text class="cls-21" transform="translate(1381.5 447.67)">特定負荷設備</text><text class="cls-21" transform="translate(1261.5 309.67)">デマンド<tspan x="-30" y="21">コントローラー</tspan></text><text class="cls-21" transform="translate(1385.5 224.67)">一般負荷設備</text><rect class="cls-25" x="1395.5" y="363.5" width="44" height="17"/><path class="cls-25" d="M1450,380.5h-65a1,1,0,0,0-.93,1.39L1395.5,409h44l11.42-27.11A1,1,0,0,0,1450,380.5Z"/><polygon class="cls-25" points="1401.01 403.5 1394.99 389.19 1389.99 389.19 1396.01 403.5 1401.01 403.5"/><polygon class="cls-25" points="1433.99 403.5 1440.01 389.19 1445.01 389.19 1438.99 403.5 1433.99 403.5"/><rect class="cls-25" x="1399.5" y="383.5" width="36" height="5"/><rect x="1404.5" y="402.5" width="26" height="6"/><line class="cls-25" x1="1401.01" y1="391.4" x2="1434.39" y2="391.4"/><line class="cls-25" x1="1402.01" y1="394.4" x2="1433.39" y2="394.4"/><line class="cls-25" x1="1403.01" y1="397.4" x2="1432.39" y2="397.4"/><line class="cls-25" x1="1405.01" y1="400.4" x2="1430.39" y2="400.4"/><rect class="cls-34" x="847.5" y="19.5" width="269" height="35"/><rect class="cls-27" x="1298" y="20" width="227" height="35"/><text class="cls-35" transform="translate(857 45.67)">停電時システムフロー</text><rect class="cls-15" x="1310.5" y="34.5" width="42" height="4"/><text class="cls-29" transform="translate(1363 45.67)">直流</text><rect class="cls-17" x="1415.5" y="34.5" width="42" height="4"/><text class="cls-30" transform="translate(1468 45.67)">交流</text><rect class="cls-31" x="1448.1" y="96.33" width="5" height="51.34" transform="translate(511.14 -989.99) rotate(45)"/><rect class="cls-31" x="1448.1" y="96.33" width="5" height="51.34" transform="translate(2562.59 -817.46) rotate(135)"/><text class="cls-21" transform="translate(1261.5 82.67)">受電設備</text><text class="cls-21" transform="translate(1410.5 91.67)">商用系統</text><polygon class="cls-17" points="1154.5 386.5 1260.5 386.5 1260.5 392.5 1268.5 384.5 1260.5 376.5 1260.5 382.5 1154.5 382.5 1154.5 386.5"/><polygon class="cls-15" points="1085.5 243.5 1085.5 124.5 1085.5 120.5 1081.5 120.5 1035.5 120.5 1035.5 124.5 1081.5 124.5 1081.5 243.5 1075.5 243.5 1083.5 251.5 1091.5 243.5 1085.5 243.5"/><polygon class="cls-33" points="1256.5 120.5 1112.5 120.5 1108.5 120.5 1108.5 124.5 1108.5 250.5 1112.5 250.5 1112.5 124.5 1256.5 124.5 1256.5 130.5 1264.5 122.5 1256.5 114.5 1256.5 120.5"/><polygon class="cls-31" points="748.5 242.51 748.5 262.03 799.38 236 748.5 209.97 748.5 229.49 748.5 242.51"/></g><g id="_2" data-name="2"><rect class="cls-36" x="58.5" y="355.5" width="74" height="63" rx="10"/><path class="cls-1" d="M102.34,368.77H71.87A2.86,2.86,0,0,0,69,371.64v23.95a2.86,2.86,0,0,0,2.87,2.87H84.06v.64A2.87,2.87,0,0,1,81.19,402H77v3.38H97.22V402H93a2.87,2.87,0,0,1-2.87-2.87v-.64h12.2a2.87,2.87,0,0,0,2.87-2.87V371.64A2.88,2.88,0,0,0,102.34,368.77Zm-1.18,23.33a1,1,0,0,1-1,1H74a1,1,0,0,1-1-1V373.77a1,1,0,0,1,1-.95h26.2a1,1,0,0,1,1,.95V392.1Z"/><path class="cls-1" d="M118.89,368.65h-8.41a3.12,3.12,0,0,0-3.11,3.12v30.35a3.11,3.11,0,0,0,3.11,3.11h8.41a3.11,3.11,0,0,0,3.11-3.11V371.77A3.12,3.12,0,0,0,118.89,368.65Zm-4.2,27.44a2.38,2.38,0,1,1,2.37-2.38A2.38,2.38,0,0,1,114.69,396.09Zm3.74-14.82h-7.31v-1.46h7.31Zm0-4.39h-7.31v-1.46h7.31Z"/><rect class="cls-36" x="58.5" y="278.5" width="74" height="63" rx="10"/><rect class="cls-37" x="10.5" y="85.5" width="102" height="73" rx="10"/><rect class="cls-17" x="442.5" y="90.5" width="74" height="63" rx="10"/><path class="cls-1" d="M121.5,300v-5h-6v-4h-8v4h-24v-4h-8v4h-6v5H87v4H69.5v25h52V304H104v-4Zm-19.72,8.67L88.16,324.09l4-10.09H86.5l3-16.05h12.28l-7.41,10.72Z"/><rect class="cls-36" x="880.5" y="355.5" width="74" height="63" rx="10"/><path class="cls-1" d="M924.34,368.77H893.87a2.86,2.86,0,0,0-2.87,2.87v23.95a2.86,2.86,0,0,0,2.87,2.87h12.19v.64a2.87,2.87,0,0,1-2.87,2.87H899v3.38h20.24V402H915a2.87,2.87,0,0,1-2.87-2.87v-.64h12.2a2.87,2.87,0,0,0,2.87-2.87V371.64A2.88,2.88,0,0,0,924.34,368.77Zm-1.18,23.33a1,1,0,0,1-1,1H896a1,1,0,0,1-1-1V373.77a1,1,0,0,1,1-.95h26.2a1,1,0,0,1,1,.95V392.1Z"/><path class="cls-1" d="M940.89,368.65h-8.41a3.12,3.12,0,0,0-3.11,3.12v30.35a3.11,3.11,0,0,0,3.11,3.11h8.41a3.11,3.11,0,0,0,3.11-3.11V371.77A3.12,3.12,0,0,0,940.89,368.65Zm-4.2,27.44a2.38,2.38,0,1,1,2.37-2.38A2.38,2.38,0,0,1,936.69,396.09Zm3.74-14.82h-7.31v-1.46h7.31Zm0-4.39h-7.31v-1.46h7.31Z"/><rect class="cls-36" x="880.5" y="276.5" width="74" height="63" rx="10"/><rect class="cls-17" x="1264.5" y="90.5" width="74" height="63" rx="10"/><path class="cls-1" d="M943.5,298v-5h-6v-4h-8v4h-24v-4h-8v4h-6v5H909v4H891.5v25h52V302H926v-4Zm-19.72,8.67-13.62,15.42L914.21,312H908.5l3-16.05h12.28l-7.41,10.72Z"/><path class="cls-1" d="M40.59,120.33l1.18-4.88c-2.54-1.15-4.56-4.67-4.56-7.66A8.57,8.57,0,0,1,53.88,105h3.3c.53-.88,2.07-2,1.81-2.66-.32-.78-3.23-.18-3.69-.88s1.19-3.16.59-3.75-3,1.06-3.75.59-.1-3.37-.88-3.7-2.4,2.16-3.24,2-1.37-3.08-2.23-3.08-1.42,2.91-2.23,3.08-2.47-2.31-3.24-2-.19,3.23-.88,3.69-3.16-1.19-3.76-.6,1.07,3.06.6,3.76-3.37.1-3.7.88,2.16,2.4,2,3.24-3.07,1.37-3.07,2.23,2.91,1.42,3.07,2.23-2.31,2.47-2,3.24,3.23.18,3.7.88-1.19,3.16-.6,3.75,3.06-1.06,3.76-.59A6.09,6.09,0,0,1,40.59,120.33Z"/><path class="cls-1" d="M39.25,132.9H91.5l-6.15-25.47H45.4ZM87,129.39H74.58l-.74-7.9H85.13ZM82.59,111l1.91,7.9H73.6l-.74-7.9Zm-22.07,0h9.69l.74,7.9H59.78Zm-1,10.54H71.2l.73,7.9H58.8ZM48.16,111h9.72l-.74,7.9H46.26Zm8.73,10.54-.73,7.9H43.71l1.91-7.9Z"/><polygon class="cls-1" points="41.3 138.23 89.45 138.23 91.5 134.13 39.25 134.13 41.3 138.23"/><polygon class="cls-1" points="68.03 139.89 62.73 139.89 62.44 144.53 57.09 147.19 57.09 150.5 73.66 150.5 73.66 147.19 68.31 144.53 68.03 139.89"/><rect class="cls-38" x="117.5" y="85.5" width="102" height="73" rx="10"/><rect class="cls-37" x="832.5" y="85.5" width="102" height="73" rx="10"/><path class="cls-1" d="M862.59,120.33l1.18-4.88c-2.54-1.15-4.56-4.67-4.56-7.66A8.57,8.57,0,0,1,875.88,105h3.3c.53-.88,2.07-2,1.81-2.66-.32-.78-3.23-.18-3.69-.88s1.19-3.16.59-3.75-3,1.06-3.75.59-.1-3.37-.88-3.7-2.4,2.16-3.24,2-1.37-3.08-2.23-3.08-1.42,2.91-2.23,3.08-2.47-2.31-3.24-2-.19,3.23-.88,3.69-3.16-1.19-3.76-.6,1.07,3.06.6,3.76-3.37.1-3.7.88,2.16,2.4,2,3.24-3.07,1.37-3.07,2.23,2.91,1.42,3.07,2.23-2.31,2.47-2,3.24,3.23.18,3.7.88-1.19,3.16-.6,3.75,3.06-1.06,3.76-.59A6.09,6.09,0,0,1,862.59,120.33Z"/><path class="cls-1" d="M861.25,132.9H913.5l-6.15-25.47h-40ZM909,129.39H896.58l-.74-7.9h11.29ZM904.59,111l1.91,7.9H895.6l-.74-7.9Zm-22.07,0h9.69l.74,7.9H881.78Zm-1,10.54H893.2l.73,7.9H880.8ZM870.16,111h9.72l-.74,7.9H868.26Zm8.73,10.54-.73,7.9H865.71l1.91-7.9Z"/><polygon class="cls-1" points="863.3 138.23 911.45 138.23 913.5 134.13 861.25 134.13 863.3 138.23"/><polygon class="cls-1" points="890.03 139.89 884.73 139.89 884.44 144.53 879.09 147.19 879.09 150.5 895.66 150.5 895.66 147.19 890.31 144.53 890.03 139.89"/><rect class="cls-38" x="939.5" y="85.5" width="102" height="73" rx="10"/></g><g id="_10" data-name="10"><path class="cls-1" d="M150,124.66l.15-.18,3-3.17.89-.93h0v0l-.28-.16a2.48,2.48,0,0,0-.26-.19,3.14,3.14,0,0,1-1.07-1.76c0-.1,0-.22-.05-.32a1.93,1.93,0,0,1,0-.24s0,0,0-.07h0v0L132,124.46l-.21.08-.12.19-.48.77-.69,1.09,1.3-.13,18-1.78Z"/><path class="cls-1" d="M153.37,115.37a2.84,2.84,0,0,1,.25-.23l.27-.18a3.07,3.07,0,0,1,1.65-.48,2.78,2.78,0,0,1,.51,0l.32.07a1.06,1.06,0,0,1,.25.09h0L158.3,93.6l0-.23-.13-.19-.52-.73-.45-.65-.26-.41v0l0,0-.39,1.24-5.38,17.26-.06.22.09.21Z"/><path class="cls-1" d="M158.64,117.23c0,.1,0,.22,0,.32v0a3.1,3.1,0,0,1-.67,1.91,1.5,1.5,0,0,1-.2.24,1.94,1.94,0,0,1-.21.2h0a0,0,0,0,1,0,0l18.29,11.31.19.13.23,0,.89-.11.79-.11.48,0v0h0l-.92-.91-12.87-12.7-.16-.16h-.23l-4.33-.31-1.33-.1h0C158.61,117,158.63,117.13,158.64,117.23Z"/><path class="cls-1" d="M157.21,116.81a1.73,1.73,0,0,0-.65-.74,1.27,1.27,0,0,0-.29-.18,2.45,2.45,0,0,0-.32-.09,1.4,1.4,0,0,0-.41,0,1.71,1.71,0,0,0-1.13.41.9.9,0,0,0-.25.23,1.05,1.05,0,0,0-.22.3,1.52,1.52,0,0,0-.18.46,1,1,0,0,0,0,.35.31.31,0,0,0,0,.1.93.93,0,0,0,0,.23,1.79,1.79,0,0,0,.73,1.25l.1.07a.64.64,0,0,0,.18.1,1,1,0,0,0,.33.12,1.56,1.56,0,0,0,.48.08,1.58,1.58,0,0,0,.58-.11.55.55,0,0,0,.25-.1.77.77,0,0,0,.29-.19.86.86,0,0,0,.25-.22,1.82,1.82,0,0,0,.48-1.23.61.61,0,0,0,0-.14,1.53,1.53,0,0,0,0-.32A1.61,1.61,0,0,0,157.21,116.81Z"/><path class="cls-1" d="M196,149.55v0h-7.75l-.65-7.87-.47-5.92v0l-2.82,3.81-.84,10h-25l-2-25-.3-3.81h0v0a3,3,0,0,1-.67.08,3.19,3.19,0,0,1-1-.17l-.1,0h0l-2.27,29h-7.49v3.05h0v0H196v-3.06Z"/><path class="cls-1" d="M186.29,128h-.45a1.46,1.46,0,0,1-.49-.09l-.19-.07a1,1,0,0,1-.29-.12l-.21-.13-.15-.11,0,0h0l0,0L178,142.35l-.07.16,0,.17.2.66.26,1,.6-.8,5.56-7.52,2.33-3.15.38-.52.1-.14V132l-.22-3-.08-1.18h0v0l-.24.1-.24.07h-.05Z"/><path class="cls-1" d="M184.94,124.65a.76.76,0,0,0-.18.23s0,0,0,.07a.79.79,0,0,0-.11.29.55.55,0,0,0,0,.26.22.22,0,0,0,0,.08.55.55,0,0,0,0,.18,1.42,1.42,0,0,0,.57,1,.22.22,0,0,0,.07.06l.14.07a1.17,1.17,0,0,0,.26.1,1.15,1.15,0,0,0,.37.06,1.08,1.08,0,0,0,.44-.09.5.5,0,0,0,.2-.08.83.83,0,0,0,.23-.14.72.72,0,0,0,.18-.17,1.38,1.38,0,0,0,.37-1,.37.37,0,0,0,0-.11h0a.85.85,0,0,0,0-.23,2.58,2.58,0,0,0-.08-.26,1.4,1.4,0,0,0-.51-.57.71.71,0,0,0-.22-.13l-.24-.07a1.12,1.12,0,0,0-.32,0,1.34,1.34,0,0,0-.87.31A.65.65,0,0,0,184.94,124.65Z"/><path class="cls-1" d="M206.48,125.39l0,0-1-.23L192,121.9l-.18-.05-.15.09-3,1.52-.92.47h0a1.24,1.24,0,0,1,.16.19l.16.21a2.61,2.61,0,0,1,.27.67,2.16,2.16,0,0,1,.06.88c0,.08,0,.16,0,.24a1.21,1.21,0,0,1-.05.18s0,0,0,0h0v0h.56l16,.15H205l.14-.11.55-.43.47-.39.29-.22Z"/><path class="cls-1" d="M173.21,110.89l6.15,12.48.08.16.16.07,3.77,1.61.26.11c0-.07,0-.17.05-.25a1,1,0,0,1,.06-.23v0a2.29,2.29,0,0,1,.29-.56,2.14,2.14,0,0,1,.68-.66,1.05,1.05,0,0,1,.21-.12.72.72,0,0,1,.2-.09h0l-10.44-12.84-.1-.14-.18,0-.68-.14-.6-.12-.36-.09h0Z"/><rect class="cls-39" x="447" y="216.5" width="65" height="65"/><rect class="cls-17" x="447" y="352" width="65" height="65"/><line class="cls-25" x1="402.5" y1="295.95" x2="471.5" y2="257.5"/><path d="M649.4,378.08a.57.57,0,0,0-.65.21c-.09.12-.18.28-.29.46-.37.62-.88,1.47-1.64,1.47s-1.63-1.09-2-1.67c-.07-.1-.13-.19-.19-.26a.57.57,0,0,0-.65-.21.62.62,0,0,0-.41.66l1.66,8.66.81-.13h0l-.77-4-.36-1.88-.3-1.64a3,3,0,0,0,2.21,1.3,2.21,2.21,0,0,0,1.68-.86l.15-.18.13-.13-1.15,7.24,0,.18h0l.84.12,1.37-8.62v0A.64.64,0,0,0,649.4,378.08Z"/><path d="M656.63,368.62a14.08,14.08,0,0,0-19.91,19.92l0,0h0a14.71,14.71,0,0,0,1.26,1.09l.27,3,.32,3.43-.17,0a1.08,1.08,0,0,0-.81,1.27l.09.4a1.05,1.05,0,0,0,1.12.81l.18,2-.58.13a1.06,1.06,0,0,0-.81,1.26l.09.41a1.06,1.06,0,0,0,1.27.8l.24-.06h0l0,.27.27,2.9h2.1a5.31,5.31,0,0,0,5,3.67,5.24,5.24,0,0,0,5-3.67h2.1l.27-2.9.33-3.67.51-.11a1.06,1.06,0,0,0,.8-1.27l-.09-.4a1.06,1.06,0,0,0-1-.81l.19-2.08h.08a1.06,1.06,0,0,0,.8-1.27l-.09-.4a1,1,0,0,0-.57-.71l.28-3a14.56,14.56,0,0,0,1.25-1.09h0l0,0a14.07,14.07,0,0,0,0-19.92ZM650.4,389v1.34H643V389a16,16,0,0,1-4-2.7,10.89,10.89,0,1,1,15.39,0A15.79,15.79,0,0,1,650.4,389Zm1,8.84-8.19,1.83-1,.23L642,398l9.57-2.15Zm-8.92,5.29-.06-.68,8.74-2-.24,2.64h-2.13v1.58h0s0,0,0,.06a2.09,2.09,0,0,1-4.17-.06v-1.58Zm-.71-7.71-.27-3h10.4l-.07.76-8.9,2Z"/><path d="M679.4,378.08a.57.57,0,0,0-.65.21c-.09.12-.18.28-.29.46-.37.62-.88,1.47-1.64,1.47s-1.63-1.09-2-1.67c-.07-.1-.13-.19-.19-.26a.57.57,0,0,0-.65-.21.62.62,0,0,0-.41.66l1.66,8.66.81-.13h0l-.77-4-.36-1.88-.3-1.64a3,3,0,0,0,2.21,1.3,2.21,2.21,0,0,0,1.68-.86l.15-.18.13-.13-1.15,7.24,0,.18h0l.84.12,1.37-8.62v0A.64.64,0,0,0,679.4,378.08Z"/><path d="M686.63,368.62a14.08,14.08,0,0,0-19.91,19.92l0,0h0a14.71,14.71,0,0,0,1.26,1.09l.27,3,.32,3.43-.17,0a1.08,1.08,0,0,0-.81,1.27l.09.4a1.05,1.05,0,0,0,1.12.81l.18,2-.58.13a1.06,1.06,0,0,0-.81,1.26l.09.41a1.06,1.06,0,0,0,1.27.8l.24-.06h0l0,.27.27,2.9h2.1a5.31,5.31,0,0,0,5,3.67,5.24,5.24,0,0,0,5-3.67h2.1l.27-2.9.33-3.67.51-.11a1.06,1.06,0,0,0,.8-1.27l-.09-.4a1.06,1.06,0,0,0-1-.81l.19-2.08h.08a1.06,1.06,0,0,0,.8-1.27l-.09-.4a1,1,0,0,0-.57-.71l.28-3a14.56,14.56,0,0,0,1.25-1.09h0l0,0a14.07,14.07,0,0,0,0-19.92ZM680.4,389v1.34H673V389a16,16,0,0,1-4-2.7,10.89,10.89,0,1,1,15.39,0A15.79,15.79,0,0,1,680.4,389Zm1,8.84-8.19,1.83-1,.23L672,398l9.57-2.15Zm-8.92,5.29-.06-.68,8.74-2-.24,2.64h-2.13v1.58h0s0,0,0,.06a2.09,2.09,0,0,1-4.17-.06v-1.58Zm-.71-7.71-.27-3h10.4l-.07.76-8.9,2Z"/><path class="cls-1" d="M500.42,111.5H493.5v-15h-8v15h-6v.07h-6V96.5h-8v15.07h-6.92s-5.46,24.88,14.42,29.26v2.67h2v4h9v-4h2v-2.74C505.88,136.37,500.42,111.5,500.42,111.5Z"/><rect class="cls-39" x="1269" y="216.5" width="65" height="65"/><rect class="cls-17" x="1269" y="352" width="65" height="65"/><path d="M1471.4,378.08a.57.57,0,0,0-.65.21c-.09.12-.18.28-.29.46-.37.62-.88,1.47-1.64,1.47s-1.63-1.09-2-1.67c-.07-.1-.13-.19-.19-.26a.57.57,0,0,0-.65-.21.62.62,0,0,0-.41.66l1.66,8.66.81-.13h0l-.77-4-.36-1.88-.3-1.64a3,3,0,0,0,2.21,1.3,2.21,2.21,0,0,0,1.68-.86l.15-.18.13-.13-1.15,7.24,0,.18h0l.84.12,1.37-8.62v0A.64.64,0,0,0,1471.4,378.08Z"/><path d="M1478.63,368.62a14.08,14.08,0,0,0-19.91,19.92l0,0h0a14.71,14.71,0,0,0,1.26,1.09l.27,3,.32,3.43-.17,0a1.08,1.08,0,0,0-.81,1.27l.09.4a1.05,1.05,0,0,0,1.12.81l.18,2-.58.13a1.06,1.06,0,0,0-.81,1.26l.09.41a1.06,1.06,0,0,0,1.27.8l.24-.06h0l0,.27.27,2.9h2.1a5.31,5.31,0,0,0,5,3.67,5.24,5.24,0,0,0,5-3.67h2.1l.27-2.9.33-3.67.51-.11a1.06,1.06,0,0,0,.8-1.27l-.09-.4a1.06,1.06,0,0,0-1-.81l.19-2.08h.08a1.06,1.06,0,0,0,.8-1.27l-.09-.4a1,1,0,0,0-.57-.71l.28-3a14.56,14.56,0,0,0,1.25-1.09h0l0,0a14.07,14.07,0,0,0,0-19.92ZM1472.4,389v1.34H1465V389a16,16,0,0,1-4-2.7,10.89,10.89,0,1,1,15.39,0A15.79,15.79,0,0,1,1472.4,389Zm1,8.84-8.19,1.83-1,.23L1464,398l9.57-2.15Zm-8.92,5.29-.06-.68,8.74-2-.24,2.64h-2.13v1.58h0s0,0,0,.06a2.09,2.09,0,0,1-4.17-.06v-1.58Zm-.71-7.71-.27-3h10.4l-.07.76-8.9,2Z"/><path d="M1501.4,378.08a.57.57,0,0,0-.65.21c-.09.12-.18.28-.29.46-.37.62-.88,1.47-1.64,1.47s-1.63-1.09-2-1.67c-.07-.1-.13-.19-.19-.26a.57.57,0,0,0-.65-.21.62.62,0,0,0-.41.66l1.66,8.66.81-.13h0l-.77-4-.36-1.88-.3-1.64a3,3,0,0,0,2.21,1.3,2.21,2.21,0,0,0,1.68-.86l.15-.18.13-.13-1.15,7.24,0,.18h0l.84.12,1.37-8.62v0A.64.64,0,0,0,1501.4,378.08Z"/><path d="M1508.63,368.62a14.08,14.08,0,0,0-19.91,19.92l0,0h0a14.71,14.71,0,0,0,1.26,1.09l.27,3,.32,3.43-.17,0a1.08,1.08,0,0,0-.81,1.27l.09.4a1.05,1.05,0,0,0,1.12.81l.18,2-.58.13a1.06,1.06,0,0,0-.81,1.26l.09.41a1.06,1.06,0,0,0,1.27.8l.24-.06h0l0,.27.27,2.9h2.1a5.31,5.31,0,0,0,5,3.67,5.24,5.24,0,0,0,5-3.67h2.1l.27-2.9.33-3.67.51-.11a1.06,1.06,0,0,0,.8-1.27l-.09-.4a1.06,1.06,0,0,0-1-.81l.19-2.08h.08a1.06,1.06,0,0,0,.8-1.27l-.09-.4a1,1,0,0,0-.57-.71l.28-3a14.56,14.56,0,0,0,1.25-1.09h0l0,0a14.07,14.07,0,0,0,0-19.92ZM1502.4,389v1.34H1495V389a16,16,0,0,1-4-2.7,10.89,10.89,0,1,1,15.39,0A15.79,15.79,0,0,1,1502.4,389Zm1,8.84-8.19,1.83-1,.23L1494,398l9.57-2.15Zm-8.92,5.29-.06-.68,8.74-2-.24,2.64h-2.13v1.58h0s0,0,0,.06a2.09,2.09,0,0,1-4.17-.06v-1.58Zm-.71-7.71-.27-3h10.4l-.07.76-8.9,2Z"/><path class="cls-1" d="M1322.42,111.5h-6.92v-15h-8v15h-6v.07h-6V96.5h-8v15.07h-6.92s-5.46,24.88,14.42,29.26v2.67h2v4h9v-4h2v-2.74C1327.88,136.37,1322.42,111.5,1322.42,111.5Z"/><path class="cls-1" d="M972,124.66l.15-.18,3-3.17.89-.93h0v0l-.28-.16a2.48,2.48,0,0,0-.26-.19,3.14,3.14,0,0,1-1.07-1.76c0-.1,0-.22,0-.32a1.93,1.93,0,0,1,0-.24s0,0,0-.07h0v0L954,124.46l-.21.08-.12.19-.48.77-.69,1.09,1.3-.13,18-1.78Z"/><path class="cls-1" d="M975.37,115.37a2.84,2.84,0,0,1,.25-.23c.09-.06.18-.13.27-.18a3.07,3.07,0,0,1,1.65-.48,2.78,2.78,0,0,1,.51,0l.32.07a1.06,1.06,0,0,1,.25.09h0L980.3,93.6l0-.23-.13-.19-.52-.73-.45-.65-.26-.41v0l0,0-.39,1.24-5.38,17.26-.06.22.09.21Z"/><path class="cls-1" d="M980.64,117.23c0,.1,0,.22,0,.32v0a3.1,3.1,0,0,1-.67,1.91,1.5,1.5,0,0,1-.2.24,1.94,1.94,0,0,1-.21.2h0a0,0,0,0,1,0,0l18.29,11.31.19.13.23,0,.89-.11.79-.11.48,0v0h0l-.92-.91-12.87-12.7-.16-.16h-.23l-4.33-.31-1.33-.1h0C980.61,117,980.63,117.13,980.64,117.23Z"/><path class="cls-1" d="M979.21,116.81a1.73,1.73,0,0,0-.65-.74,1.27,1.27,0,0,0-.29-.18,2.45,2.45,0,0,0-.32-.09,1.4,1.4,0,0,0-.41,0,1.71,1.71,0,0,0-1.13.41.9.9,0,0,0-.25.23,1.05,1.05,0,0,0-.22.3,1.52,1.52,0,0,0-.18.46,1,1,0,0,0,0,.35.31.31,0,0,0,0,.1.93.93,0,0,0,0,.23,1.79,1.79,0,0,0,.73,1.25l.1.07a.64.64,0,0,0,.18.1,1,1,0,0,0,.33.12,1.56,1.56,0,0,0,.48.08,1.58,1.58,0,0,0,.58-.11.55.55,0,0,0,.25-.1.77.77,0,0,0,.29-.19.86.86,0,0,0,.25-.22,1.82,1.82,0,0,0,.48-1.23.61.61,0,0,0,0-.14,1.53,1.53,0,0,0,0-.32A1.61,1.61,0,0,0,979.21,116.81Z"/><path class="cls-1" d="M1018,149.55v0h-7.75l-.65-7.87-.47-5.92v0l-2.82,3.81-.84,10h-25l-2-25-.3-3.81h0v0a3,3,0,0,1-.67.08,3.19,3.19,0,0,1-1-.17l-.1,0h0l-2.27,29h-7.49v3.05h0v0H1018v-3.06Z"/><path class="cls-1" d="M1008.29,128h-.45a1.46,1.46,0,0,1-.49-.09l-.19-.07a1,1,0,0,1-.29-.12l-.21-.13-.15-.11,0,0h0l0,0L1000,142.35l-.07.16,0,.17.2.66.26,1,.6-.8,5.56-7.52,2.33-3.15.38-.52.1-.14V132l-.22-3-.08-1.18h0v0l-.24.1-.24.07h0Z"/><path class="cls-1" d="M1006.94,124.65a.76.76,0,0,0-.18.23s0,0,0,.07a.79.79,0,0,0-.11.29.55.55,0,0,0,0,.26.22.22,0,0,0,0,.08.55.55,0,0,0,0,.18,1.42,1.42,0,0,0,.57,1,.22.22,0,0,0,.07.06l.14.07a1.17,1.17,0,0,0,.26.1,1.15,1.15,0,0,0,.37.06,1.08,1.08,0,0,0,.44-.09.5.5,0,0,0,.2-.08.83.83,0,0,0,.23-.14.72.72,0,0,0,.18-.17,1.38,1.38,0,0,0,.37-1,.37.37,0,0,0,0-.11h0a.85.85,0,0,0,0-.23,2.58,2.58,0,0,0-.08-.26,1.4,1.4,0,0,0-.51-.57.71.71,0,0,0-.22-.13l-.24-.07a1.12,1.12,0,0,0-.32,0,1.34,1.34,0,0,0-.87.31A.65.65,0,0,0,1006.94,124.65Z"/><path class="cls-1" d="M1028.48,125.39l0,0-1-.23L1014,121.9l-.18-.05-.15.09-3,1.52-.92.47h0a1.24,1.24,0,0,1,.16.19l.16.21a2.61,2.61,0,0,1,.27.67,2.16,2.16,0,0,1,.06.88c0,.08,0,.16,0,.24a1.21,1.21,0,0,1-.05.18s0,0,0,0h0v0h.56l16,.15h.17l.14-.11.55-.43.47-.39.29-.22Z"/><path class="cls-1" d="M995.21,110.89l6.15,12.48.08.16.16.07,3.77,1.61.26.11c0-.07,0-.17,0-.25a1,1,0,0,1,.06-.23v0a2.29,2.29,0,0,1,.29-.56,2.14,2.14,0,0,1,.68-.66,1.05,1.05,0,0,1,.21-.12.72.72,0,0,1,.2-.09h0l-10.44-12.84-.1-.14-.18,0-.68-.14-.6-.12-.36-.09h0Z"/></g></g></svg>