<svg xmlns="http://www.w3.org/2000/svg" viewBox="0 0 1105.99 467"><defs><style>.cls-1,.cls-7,.cls-8{fill:#fff;}.cls-1{stroke:#054525;stroke-miterlimit:10;stroke-width:2px;}.cls-2,.cls-4,.cls-7{font-size:23px;}.cls-2,.cls-4{font-family:NotoSansCJKjp-Medium-90ms-RKSJ-H, Noto Sans CJK JP;}.cls-3{letter-spacing:0.25em;}.cls-4,.cls-5{fill:#7fb136;}.cls-6{fill:#054525;}.cls-7{font-family:NotoSansCJKjp-Bold-90ms-RKSJ-H, Noto Sans CJK JP;}</style></defs><g id="Layer_2" data-name="Layer 2"><g id="_レイヤー_" data-name="&lt;レイヤー&gt;"><rect class="cls-1" x="413.99" y="60" width="691" height="406"/><text class="cls-2" transform="translate(575.49 198.12)">分析・解析・シミュレーション技術<tspan x="-35.74" y="46">チューニング技術、豊富</tspan><tspan class="cls-3" x="217.26" y="46">な</tspan><tspan x="246.01" y="46">ESC</tspan><tspan class="cls-3" x="288.65" y="46">O</tspan><tspan x="311.74" y="46">事業経験</tspan></text></g><g id="_2" data-name="2"><text class="cls-4" transform="translate(47.5 376.81)">発注者</text><path class="cls-5" d="M116.26,272.22c-6.34-2.38-8.15-6.07-8.15-10.85V248.83a100.66,100.66,0,0,0,6.78-22.7c4.75-1.7,7.46-4.41,10.85-16.27,1.88-6.59.31-9.61-1.61-11a8.86,8.86,0,0,0,1.19-2.12c4.06-10.84,8.61-60.45-30-63-10.94-10.3-23.18-11.59-38.63-2.58s-19.08,25.76-20.6,37.35c-1.59,12.11,2.5,31,2.5,31l.38.05c-1.53,1.62-2.49,4.65-.86,10.36,3.38,11.86,6.09,14.57,10.84,16.27,2,11.52,5.91,19.41,6.78,22.7v12.54c0,4.78-2.37,8.81-8.14,10.85-11.1,3.91-50.41,15.37-47.4,51.41H163.83C166.84,287.59,127.28,276.34,116.26,272.22Z"/><text class="cls-4" transform="translate(606.24 376.5)">ファイナンス</text><polygon class="cls-5" points="512.33 374.84 512.33 374.86 512.33 379.74 512.33 380.51 522.76 380.51 522.76 388.28 529.24 388.28 529.24 380.51 539.67 380.51 539.67 379.74 539.67 374.86 539.67 374.84 529.24 374.84 529.24 372.53 530.98 369.5 539.67 369.5 539.67 368.37 539.67 364.93 539.67 363.79 533.93 363.79 538.7 354.17 537.97 354.17 533.21 354.17 532.48 354.17 526 366.44 519.52 354.17 518.79 354.17 514.03 354.17 513.3 354.17 518.08 363.79 512.33 363.79 512.33 364.93 512.33 368.37 512.33 369.5 521.02 369.5 522.76 372.54 522.76 374.84 512.33 374.84"/><polygon class="cls-5" points="526 304.62 473.33 323.65 473.33 334.62 477.72 334.62 477.72 337.91 574.28 337.91 574.28 334.62 578.67 334.62 578.67 323.65 526 304.62"/><polygon class="cls-5" points="574.28 402.65 477.72 402.65 477.72 411.43 473.33 411.43 473.33 420.21 578.67 420.21 578.67 411.43 574.28 411.43 574.28 402.65"/><polygon class="cls-5" points="550.14 393.88 550.14 398.26 567.7 398.26 567.7 393.88 565.5 393.88 565.5 346.69 567.7 346.69 567.7 342.3 550.14 342.3 550.14 346.69 552.34 346.69 552.34 393.88 550.14 393.88"/><polygon class="cls-5" points="484.3 393.88 484.3 398.26 501.86 398.26 501.86 393.88 499.67 393.88 499.67 346.69 501.86 346.69 501.86 342.3 484.3 342.3 484.3 346.69 486.5 346.69 486.5 393.88 484.3 393.88"/><text class="cls-4" transform="translate(953.66 376.5)">施工会社</text><path class="cls-5" d="M826.56,304.83V420h92.88V304.83ZM912,412.57H878.57V390.28H867.43v22.29H834V312.26h78Z"/><rect class="cls-5" x="845.14" y="323.41" width="11.14" height="11.14"/><rect class="cls-5" x="867.43" y="323.41" width="11.14" height="11.14"/><rect class="cls-5" x="889.72" y="323.41" width="11.14" height="11.14"/><rect class="cls-5" x="845.14" y="345.7" width="11.14" height="11.14"/><rect class="cls-5" x="867.43" y="345.7" width="11.14" height="11.14"/><rect class="cls-5" x="889.72" y="345.7" width="11.14" height="11.14"/><rect class="cls-5" x="845.14" y="367.99" width="11.14" height="11.14"/><rect class="cls-5" x="867.43" y="367.99" width="11.14" height="11.14"/><rect class="cls-5" x="889.72" y="367.99" width="11.14" height="11.14"/><rect class="cls-5" x="845.14" y="390.28" width="11.14" height="11.14"/><rect class="cls-5" x="889.72" y="390.28" width="11.14" height="11.14"/><rect class="cls-6" x="550.99" width="413" height="122"/><text class="cls-7" transform="translate(684.24 77.12)">（株）エナジーデザイン</text><path class="cls-8" d="M646.64,101.86H570.49V20.14h76.15A14.87,14.87,0,0,1,661.49,35V87A14.87,14.87,0,0,1,646.64,101.86Zm-72.43-3.72h72.43A11.16,11.16,0,0,0,657.78,87V35a11.16,11.16,0,0,0-11.14-11.14H574.21Z"/><path class="cls-8" d="M637.35,77.71V44.29a3.71,3.71,0,0,0-3.71-3.72h-39v13h27.85V68.43H594.64v13h39A3.71,3.71,0,0,0,637.35,77.71Z"/><polygon class="cls-5" points="328.81 253.15 345 253.15 299.14 212.35 299.14 234.55 227 234.55 227 253.15 299.14 253.15 328.81 253.15"/><polygon class="cls-5" points="243.18 272.85 227 272.85 272.85 313.65 272.85 291.45 345 291.45 345 272.85 272.85 272.85 243.18 272.85"/></g></g></svg>