<svg xmlns="http://www.w3.org/2000/svg" viewBox="0 0 574.98 860.08"><defs><style>.cls-1{font-size:23px;}.cls-1,.cls-2,.cls-7{fill:#7fb136;}.cls-1,.cls-4,.cls-7{font-family:NotoSansCJKjp-Medium-90ms-RKSJ-H, Noto Sans CJK JP;}.cls-10,.cls-3,.cls-9{fill:#fff;}.cls-3{stroke:#054525;stroke-miterlimit:10;stroke-width:1.66px;}.cls-4,.cls-7,.cls-9{font-size:19.08px;}.cls-5{letter-spacing:0.25em;}.cls-6{letter-spacing:0em;}.cls-8{fill:#054525;}.cls-9{font-family:NotoSansCJKjp-Bold-90ms-RKSJ-H, Noto Sans CJK JP;}</style></defs><g id="Layer_2" data-name="Layer 2"><g id="_2" data-name="2"><text class="cls-1" transform="translate(252.99 251.69)">発注者</text><path class="cls-2" d="M321.75,147.1c-6.34-2.37-8.14-6.06-8.14-10.84V123.72A101.75,101.75,0,0,0,320.39,101c4.74-1.69,7.45-4.4,10.84-16.26,1.88-6.6.32-9.61-1.61-11a8.67,8.67,0,0,0,1.19-2.12c4.07-10.84,8.61-60.44-30-63C289.84-1.7,277.61-3,262.15,6s-19.08,25.75-20.6,37.34c-1.59,12.11,2.51,31,2.51,31l.37,0c-1.53,1.62-2.49,4.64-.86,10.36,3.39,11.86,6.1,14.57,10.84,16.26,2,11.53,5.92,19.41,6.78,22.71v12.54c0,4.78-2.37,8.81-8.14,10.84-11.1,3.91-50.4,15.38-47.39,51.41H369.32C372.33,162.48,332.77,151.23,321.75,147.1Z"/><rect class="cls-3" x="0.83" y="522.39" width="573.32" height="336.86"/><text class="cls-4" transform="translate(134.83 636.99)">分析・解析・シミュレーション技術<tspan x="-29.65" y="38.17">チューニング技術、豊富</tspan><tspan class="cls-5" x="180.26" y="38.17">な</tspan><tspan x="204.11" y="38.17">ESC</tspan><tspan class="cls-5" x="239.49" y="38.17">O</tspan><tspan class="cls-6" x="258.65" y="38.17">事業経験</tspan></text><text class="cls-7" transform="translate(160.33 784.99)">ファイナンス</text><polygon class="cls-2" points="82.42 783.62 82.42 783.63 82.42 787.68 82.42 788.32 91.07 788.32 91.07 794.76 96.45 794.76 96.45 788.32 105.1 788.32 105.1 787.68 105.1 783.63 105.1 783.62 96.45 783.62 96.45 781.7 97.89 779.18 105.1 779.18 105.1 778.25 105.1 775.39 105.1 774.45 100.34 774.45 104.3 766.46 103.69 766.46 99.74 766.46 99.14 766.46 93.76 776.65 88.38 766.46 87.78 766.46 83.83 766.46 83.22 766.46 87.19 774.45 82.42 774.45 82.42 775.39 82.42 778.25 82.42 779.18 89.63 779.18 91.07 781.7 91.07 783.62 82.42 783.62"/><polygon class="cls-2" points="93.76 725.36 50.06 741.14 50.06 750.24 53.7 750.24 53.7 752.98 133.82 752.98 133.82 750.24 137.46 750.24 137.46 741.14 93.76 725.36"/><polygon class="cls-2" points="133.82 806.69 53.7 806.69 53.7 813.98 50.06 813.98 50.06 821.26 137.46 821.26 137.46 813.98 133.82 813.98 133.82 806.69"/><polygon class="cls-2" points="113.79 799.41 113.79 803.05 128.36 803.05 128.36 799.41 126.54 799.41 126.54 760.26 128.36 760.26 128.36 756.62 113.79 756.62 113.79 760.26 115.61 760.26 115.61 799.41 113.79 799.41"/><polygon class="cls-2" points="59.16 799.41 59.16 803.05 73.73 803.05 73.73 799.41 71.91 799.41 71.91 760.26 73.73 760.26 73.73 756.62 59.16 756.62 59.16 760.26 60.99 760.26 60.99 799.41 59.16 799.41"/><text class="cls-7" transform="translate(448.59 784.99)">施工会社</text><path class="cls-2" d="M343.14,725.53v95.55H420.2V725.53ZM414,814.92H386.29v-18.5H377v18.5H349.3V731.7H414Z"/><rect class="cls-2" x="358.55" y="740.94" width="9.25" height="9.25"/><rect class="cls-2" x="377.04" y="740.94" width="9.25" height="9.25"/><rect class="cls-2" x="395.54" y="740.94" width="9.25" height="9.25"/><rect class="cls-2" x="358.55" y="759.44" width="9.25" height="9.25"/><rect class="cls-2" x="377.04" y="759.44" width="9.25" height="9.25"/><rect class="cls-2" x="395.54" y="759.44" width="9.25" height="9.25"/><rect class="cls-2" x="358.55" y="777.93" width="9.25" height="9.25"/><rect class="cls-2" x="377.04" y="777.93" width="9.25" height="9.25"/><rect class="cls-2" x="395.54" y="777.93" width="9.25" height="9.25"/><rect class="cls-2" x="358.55" y="796.42" width="9.25" height="9.25"/><rect class="cls-2" x="395.54" y="796.42" width="9.25" height="9.25"/><rect class="cls-8" x="114.5" y="472.61" width="342.66" height="101.22"/><text class="cls-9" transform="translate(225.06 536.6)">（株）エナジーデザイン</text><path class="cls-10" d="M193.85,557.12H130.68v-67.8h63.17a12.34,12.34,0,0,1,12.33,12.33v43.14A12.34,12.34,0,0,1,193.85,557.12ZM133.76,554h60.09a9.26,9.26,0,0,0,9.25-9.25V501.65a9.26,9.26,0,0,0-9.25-9.25H133.76Z"/><path class="cls-10" d="M186.15,537.09V509.35a3.08,3.08,0,0,0-3.08-3.08H150.71v10.79h23.11v12.33H150.71v10.78h32.36A3.08,3.08,0,0,0,186.15,537.09Z"/><polygon class="cls-2" points="297.34 412.13 297.34 428.32 338.14 382.47 315.94 382.47 315.94 310.32 297.34 310.32 297.34 382.47 297.34 412.13"/><polygon class="cls-2" points="277.64 326.5 277.64 310.32 236.84 356.17 259.04 356.17 259.04 428.32 277.64 428.32 277.64 356.17 277.64 326.5"/></g></g></svg>