<svg xmlns="http://www.w3.org/2000/svg" viewBox="0 0 1496.38 619.91"><defs><style>.cls-1{fill:#fff;}.cls-2,.cls-9{fill:#4472c4;}.cls-3,.cls-8{fill:#00b0f0;}.cls-11,.cls-4{fill:#7bb657;}.cls-5{font-size:15px;}.cls-12,.cls-5,.cls-6{font-family:NotoSansCJKjp-Regular-90ms-RKSJ-H, Noto Sans CJK JP;}.cls-6{font-size:20.71px;}.cls-7{font-size:30px;font-family:NotoSansCJKjp-Bold-90ms-RKSJ-H, Noto Sans CJK JP;}.cls-11,.cls-8,.cls-9{font-size:20px;font-family:NotoSansCJKjp-Medium-90ms-RKSJ-H, Noto Sans CJK JP;}.cls-10{letter-spacing:0.25em;}.cls-12{font-size:17px;}</style></defs><g id="Layer_2" data-name="Layer 2"><g id="レイヤー_1" data-name="レイヤー 1"><rect class="cls-1" width="1496.38" height="619.91"/><polygon class="cls-2" points="833.98 370.34 791.65 342.13 791.65 361.77 662.4 361.77 662.4 378.9 791.65 378.9 791.65 398.55 833.98 370.34"/><polygon class="cls-3" points="1130.02 246.76 1150.24 260.24 1150.24 250.86 1311.08 250.86 1311.08 242.67 1150.24 242.67 1150.24 233.29 1130.02 246.76"/><polygon class="cls-2" points="1311.08 197.18 1290.86 183.71 1290.86 193.09 1290.83 193.09 1155.08 193.09 1150.24 193.09 1150.24 183.71 1130.02 197.18 1150.24 210.66 1150.24 201.28 1155.08 201.28 1290.83 201.28 1290.86 201.28 1290.86 210.66 1311.08 197.18"/><polygon class="cls-2" points="1052.44 399.04 1065.91 378.82 1056.53 378.82 1056.53 378.79 1056.53 322.35 1056.53 317.51 1065.91 317.51 1052.44 297.29 1038.96 317.51 1048.35 317.51 1048.35 322.35 1048.35 378.79 1048.35 378.82 1038.96 378.82 1052.44 399.04"/><polygon class="cls-4" points="1382.04 313.32 1368.56 333.55 1377.94 333.55 1377.94 490.89 1150.24 490.89 1150.24 481.5 1130.02 494.98 1150.24 508.46 1150.24 499.07 1377.94 499.07 1383.64 499.07 1386.13 499.07 1386.13 333.55 1395.51 333.55 1382.04 313.32"/><text class="cls-5" transform="translate(1191.77 480.44)">③サービス料の請求書</text><text class="cls-5" transform="translate(1191.77 528.29)">④サービス料の⽀払い</text><text class="cls-6" transform="translate(675.71 304.35)">代理受領の場合</text></g><g id="_レイヤー_" data-name="&lt;レイヤー&gt;"><text class="cls-7" transform="translate(523.19 79.6)">通常のシェアードセイビング方式</text></g><g id="_2" data-name="2"><polygon class="cls-2" points="202.76 407.52 216.24 387.3 206.85 387.3 206.85 288.81 198.67 288.81 198.67 387.3 189.28 387.3 202.76 407.52"/><polygon class="cls-4" points="249.13 288.81 235.66 309.03 245.04 309.03 245.04 407.52 253.23 407.52 253.23 309.03 262.61 309.03 249.13 288.81"/><polygon class="cls-3" points="303.53 197.18 323.75 210.66 323.75 201.28 484.59 201.28 484.59 193.09 323.75 193.09 323.75 183.71 303.53 197.18"/><path class="cls-3" d="M537.42,242.37A2.71,2.71,0,0,0,537,242a4.59,4.59,0,0,0-.6-.35,3,3,0,0,0,1.65-2.83,3.84,3.84,0,0,0-.29-1.51,3.24,3.24,0,0,0-.83-1.16,3.73,3.73,0,0,0-1.3-.73,5.1,5.1,0,0,0-1.7-.26h-5.35v13.31h5.58a5,5,0,0,0,1.69-.27,3.55,3.55,0,0,0,1.29-.77,3.08,3.08,0,0,0,.81-1.19,4.21,4.21,0,0,0,.28-1.59,3.89,3.89,0,0,0-.19-1.27A2.89,2.89,0,0,0,537.42,242.37Zm-6.23-4.88h2.55a1.85,1.85,0,0,1,1.26.4,1.48,1.48,0,0,1,.46,1.13,1.45,1.45,0,0,1-.46,1.12,1.85,1.85,0,0,1-1.26.41h-2.55Zm4,8.23a1.77,1.77,0,0,1-1.27.44h-2.72v-3.27h2.72a1.81,1.81,0,0,1,1.27.43,1.8,1.8,0,0,1,0,2.4Z"/><path class="cls-3" d="M546.16,235.17l-4.85,13.31H544l.81-2.35h4.73l.79,2.35h2.71l-4.87-13.31Zm-.6,8.77,1.68-4.85,1.63,4.85Z"/><polygon class="cls-3" points="564.17 243.32 558.9 235.17 556.58 235.17 556.58 248.48 559.18 248.48 559.18 240.31 564.45 248.48 566.77 248.48 566.77 235.17 564.17 235.17 564.17 243.32"/><polygon class="cls-3" points="582.18 235.17 579.02 235.17 574.33 240.96 574.33 235.17 571.73 235.17 571.73 248.48 574.33 248.48 574.33 244.48 576.05 242.42 579.47 248.48 582.5 248.48 577.77 240.46 582.18 235.17"/><polygon class="cls-3" points="555.55 148.72 518.14 162.23 518.14 170.03 521.25 170.03 521.25 172.36 589.84 172.36 589.84 170.03 592.96 170.03 592.96 162.23 555.55 148.72"/><polygon class="cls-3" points="589.84 218.35 521.25 218.35 521.25 224.58 518.14 224.58 518.14 230.82 592.96 230.82 592.96 224.58 589.84 224.58 589.84 218.35"/><polygon class="cls-3" points="572.69 212.11 572.69 215.23 585.16 215.23 585.16 212.11 583.61 212.11 583.61 178.6 585.16 178.6 585.16 175.48 572.69 175.48 572.69 178.6 574.25 178.6 574.25 212.11 572.69 212.11"/><polygon class="cls-3" points="549.31 212.11 549.31 215.23 561.78 215.23 561.78 212.11 560.22 212.11 560.22 178.6 561.78 178.6 561.78 175.48 549.31 175.48 549.31 178.6 550.87 178.6 550.87 212.11 549.31 212.11"/><polygon class="cls-3" points="525.93 212.11 525.93 215.23 538.4 215.23 538.4 212.11 536.84 212.11 536.84 178.6 538.4 178.6 538.4 175.48 525.93 175.48 525.93 178.6 527.49 178.6 527.49 212.11 525.93 212.11"/><text class="cls-8" transform="translate(515.55 274.87)">金融機関</text><text class="cls-9" transform="translate(167.37 274.87)">ESC<tspan class="cls-10" x="37.08" y="0">O</tspan><tspan x="57.16" y="0">事業者</tspan></text><text class="cls-11" transform="translate(175.95 571.02)">建物所有者</text><path class="cls-2" d="M191.68,156.11v85h68.53v-85Zm63,79.5H230.06V219.16h-8.22v16.45H197.16v-74h57.57Z"/><rect class="cls-2" x="205.39" y="169.82" width="8.22" height="8.22"/><rect class="cls-2" x="221.84" y="169.82" width="8.22" height="8.22"/><rect class="cls-2" x="238.28" y="169.82" width="8.22" height="8.22"/><rect class="cls-2" x="205.39" y="186.27" width="8.22" height="8.22"/><rect class="cls-2" x="221.84" y="186.27" width="8.22" height="8.22"/><rect class="cls-2" x="238.28" y="186.27" width="8.22" height="8.22"/><rect class="cls-2" x="205.39" y="202.71" width="8.22" height="8.22"/><rect class="cls-2" x="221.84" y="202.71" width="8.22" height="8.22"/><rect class="cls-2" x="238.28" y="202.71" width="8.22" height="8.22"/><rect class="cls-2" x="205.39" y="219.16" width="8.22" height="8.22"/><rect class="cls-2" x="238.28" y="219.16" width="8.22" height="8.22"/><text class="cls-12" transform="translate(368.56 183.42)">①融資</text><text class="cls-12" transform="translate(368.56 233.43)">④返済</text><path class="cls-4" d="M251.24,503.63c-4.67-1.75-11.48-6.85-11.48-10v-8.33c2.7-3,4.75-9.1,6-16,2.85-1,4.47-2.64,6.51-9.76,2.15-7.57-3.26-7.31-3.26-7.31,4.38-14.49-1.38-28.11-11-27.11-6.65-11.64-28.95,2.66-35.93,1.67a15.77,15.77,0,0,0,1.66,7c-2.43,4.61-1.49,13.81-.81,18.46-.39,0-5.28,0-3.21,7.31s3.66,8.74,6.5,9.76c1.22,6.91,3.27,13,6,16v8.33c0,3.17-7.23,8.52-11.48,10-8.77,3.09-30.33,12-28.93,28.61.33,4,22.29,8.14,54.23,8.14s53.9-4.14,54.23-8.14C281.57,515.59,260,506.89,251.24,503.63Z"/><text class="cls-12" transform="translate(47.76 362.02)">②ESC<tspan class="cls-10" x="47.99" y="0">O</tspan><tspan x="64.85" y="0">サービス</tspan></text><text class="cls-12" transform="translate(263.61 362.02)">③サービス料支払い</text><path class="cls-3" d="M1363.91,242.37a2.71,2.71,0,0,0-.41-.36,4.59,4.59,0,0,0-.6-.35,3,3,0,0,0,1.65-2.83,3.84,3.84,0,0,0-.29-1.51,3.24,3.24,0,0,0-.83-1.16,3.73,3.73,0,0,0-1.3-.73,5.1,5.1,0,0,0-1.7-.26h-5.35v13.31h5.58a5,5,0,0,0,1.69-.27,3.55,3.55,0,0,0,1.29-.77,3.19,3.19,0,0,0,.81-1.19,4.21,4.21,0,0,0,.28-1.59,3.89,3.89,0,0,0-.19-1.27A2.89,2.89,0,0,0,1363.91,242.37Zm-6.23-4.88h2.55a1.85,1.85,0,0,1,1.26.4A1.48,1.48,0,0,1,1362,239a1.45,1.45,0,0,1-.46,1.12,1.85,1.85,0,0,1-1.26.41h-2.55Zm4,8.23a1.77,1.77,0,0,1-1.27.44h-2.72v-3.27h2.72a1.81,1.81,0,0,1,1.27.43,1.8,1.8,0,0,1,0,2.4Z"/><path class="cls-3" d="M1372.65,235.17l-4.85,13.31h2.71l.81-2.35h4.73l.79,2.35h2.71l-4.87-13.31Zm-.6,8.77,1.68-4.85,1.63,4.85Z"/><polygon class="cls-3" points="1390.66 243.32 1385.39 235.17 1383.07 235.17 1383.07 248.48 1385.67 248.48 1385.67 240.31 1390.94 248.48 1393.26 248.48 1393.26 235.17 1390.66 235.17 1390.66 243.32"/><polygon class="cls-3" points="1408.67 235.17 1405.51 235.17 1400.82 240.96 1400.82 235.17 1398.21 235.17 1398.21 248.48 1400.82 248.48 1400.82 244.48 1402.54 242.42 1405.96 248.48 1408.99 248.48 1404.26 240.46 1408.67 235.17"/><polygon class="cls-3" points="1382.04 148.72 1344.63 162.23 1344.63 170.03 1347.74 170.03 1347.74 172.36 1416.33 172.36 1416.33 170.03 1419.45 170.03 1419.45 162.23 1382.04 148.72"/><polygon class="cls-3" points="1416.33 218.35 1347.74 218.35 1347.74 224.58 1344.63 224.58 1344.63 230.82 1419.45 230.82 1419.45 224.58 1416.33 224.58 1416.33 218.35"/><polygon class="cls-3" points="1399.18 212.11 1399.18 215.23 1411.65 215.23 1411.65 212.11 1410.1 212.11 1410.1 178.6 1411.65 178.6 1411.65 175.48 1399.18 175.48 1399.18 178.6 1400.74 178.6 1400.74 212.11 1399.18 212.11"/><polygon class="cls-3" points="1375.8 212.11 1375.8 215.23 1388.27 215.23 1388.27 212.11 1386.71 212.11 1386.71 178.6 1388.27 178.6 1388.27 175.48 1375.8 175.48 1375.8 178.6 1377.36 178.6 1377.36 212.11 1375.8 212.11"/><polygon class="cls-3" points="1352.42 212.11 1352.42 215.23 1364.89 215.23 1364.89 212.11 1363.33 212.11 1363.33 178.6 1364.89 178.6 1364.89 175.48 1352.42 175.48 1352.42 178.6 1353.98 178.6 1353.98 212.11 1352.42 212.11"/><text class="cls-8" transform="translate(1342.04 274.87)">金融機関</text><text class="cls-9" transform="translate(993.86 274.87)">ESC<tspan class="cls-10" x="37.08" y="0">O</tspan><tspan x="57.16" y="0">事業者</tspan></text><text class="cls-11" transform="translate(1002.44 571.02)">建物所有者</text><path class="cls-2" d="M1018.17,156.11v85h68.53v-85Zm63.05,79.5h-24.67V219.16h-8.22v16.45h-24.68v-74h57.57Z"/><rect class="cls-2" x="1031.88" y="169.82" width="8.22" height="8.22"/><rect class="cls-2" x="1048.33" y="169.82" width="8.22" height="8.22"/><rect class="cls-2" x="1064.77" y="169.82" width="8.22" height="8.22"/><rect class="cls-2" x="1031.88" y="186.27" width="8.22" height="8.22"/><rect class="cls-2" x="1048.33" y="186.27" width="8.22" height="8.22"/><rect class="cls-2" x="1064.77" y="186.27" width="8.22" height="8.22"/><rect class="cls-2" x="1031.88" y="202.71" width="8.22" height="8.22"/><rect class="cls-2" x="1048.33" y="202.71" width="8.22" height="8.22"/><rect class="cls-2" x="1064.77" y="202.71" width="8.22" height="8.22"/><rect class="cls-2" x="1031.88" y="219.16" width="8.22" height="8.22"/><rect class="cls-2" x="1064.77" y="219.16" width="8.22" height="8.22"/><text class="cls-12" transform="translate(1161.05 183.42)">②代理受領契約</text><text class="cls-5" transform="translate(1140.16 304.35)">⑤⼊⾦し<tspan class="cls-10" x="60" y="0">た</tspan><tspan x="78.75" y="0">ESC</tspan><tspan class="cls-10" x="106.09" y="0">O</tspan><tspan x="120.97" y="0">サービス料から</tspan><tspan x="0" y="24">⼯事費</tspan><tspan class="cls-10" x="45" y="24">分+</tspan><tspan x="75.82" y="24">その利</tspan><tspan class="cls-10" x="120.82" y="24">息</tspan><tspan x="139.57" y="24">+</tspan><tspan x="0" y="48">税⾦関係以外を⽀払う</tspan></text><path class="cls-4" d="M1077.73,503.63c-4.67-1.75-11.48-6.85-11.48-10v-8.33c2.7-3,4.75-9.1,6-16,2.85-1,4.47-2.64,6.5-9.76,2.16-7.57-3.25-7.31-3.25-7.31,4.38-14.49-1.38-28.11-11-27.11-6.66-11.64-29,2.66-35.93,1.67a15.77,15.77,0,0,0,1.66,7c-2.43,4.61-1.49,13.81-.81,18.46-.39,0-5.28,0-3.21,7.31s3.66,8.74,6.5,9.76c1.22,6.91,3.27,13,6,16v8.33c0,3.17-7.23,8.52-11.48,10-8.77,3.09-30.33,12-28.93,28.61.33,4,22.29,8.14,54.23,8.14s53.9-4.14,54.23-8.14C1108.06,515.59,1086.45,506.89,1077.73,503.63Z"/><text class="cls-5" transform="translate(926.55 348.16)">①代理受領<tspan x="0" y="24">契約書の承認</tspan></text></g></g></svg>