<svg xmlns="http://www.w3.org/2000/svg" viewBox="0 0 574.64 850.56"><defs><style>.cls-1{fill:red;}.cls-11,.cls-15,.cls-2,.cls-27,.cls-28,.cls-32,.cls-39{fill:#fff;}.cls-11,.cls-22,.cls-24,.cls-3,.cls-30,.cls-31,.cls-4,.cls-8,.cls-9{font-size:15.94px;}.cls-3,.cls-34{fill:#f7931e;}.cls-11,.cls-15,.cls-22,.cls-25,.cls-29,.cls-3,.cls-30,.cls-31,.cls-39,.cls-4,.cls-8,.cls-9{font-family:NotoSansCJKjp-Medium-90ms-RKSJ-H, Noto Sans CJK JP;}.cls-35,.cls-4{fill:#29abe2;}.cls-26,.cls-36,.cls-5,.cls-6,.cls-7{fill:none;}.cls-36,.cls-5,.cls-6,.cls-7{stroke:#004ebc;}.cls-26,.cls-27,.cls-28,.cls-32,.cls-36,.cls-38,.cls-5,.cls-6,.cls-7{stroke-miterlimit:10;}.cls-32,.cls-36,.cls-5,.cls-6,.cls-7{stroke-width:2.39px;}.cls-6{stroke-dasharray:9.39 9.39;}.cls-7{stroke-dasharray:9.3 9.3;}.cls-33,.cls-8,.cls-9{fill:#8cc63f;}.cls-8{letter-spacing:-0.1em;}.cls-10{fill:#0071bc;}.cls-12{font-size:11.16px;}.cls-13{letter-spacing:0.25em;}.cls-14{fill:#8ec0e1;}.cls-15{font-size:12.75px;}.cls-16,.cls-30{fill:#39b54a;}.cls-17{fill:#004ebc;}.cls-18,.cls-25,.cls-31{fill:#f172ab;}.cls-19{fill:#9363b1;}.cls-20{fill:#a9aaad;}.cls-21{fill:#d1d0d2;}.cls-23{letter-spacing:-0.5em;}.cls-24{font-family:NotoSansCJKjp-Bold-90ms-RKSJ-H, Noto Sans CJK JP;}.cls-25{font-size:12.59px;letter-spacing:-0.1em;}.cls-26,.cls-27,.cls-38{stroke:#000;}.cls-26{stroke-width:1.59px;}.cls-27,.cls-28,.cls-38{stroke-width:0.8px;}.cls-28{stroke:#666;}.cls-29,.cls-39{font-size:18.33px;}.cls-32{stroke:red;}.cls-36{stroke-dasharray:9.21 9.21;}.cls-37{fill:#d7d7d9;}</style></defs><g id="Layer_2" data-name="Layer 2"><g id="レイヤー_1" data-name="レイヤー 1"><polygon class="cls-1" points="280.81 399.84 261.29 399.84 287.32 450.72 313.35 399.84 293.83 399.84 280.81 399.84"/></g><g id="_2" data-name="2"><rect class="cls-2" width="574.64" height="376.18"/><text class="cls-3" transform="translate(12.59 143.81)">太陽光発電</text><text class="cls-4" transform="translate(101.89 143.81)">風力発電</text><rect class="cls-2" x="17.14" y="155.81" width="263.01" height="204.83"/><polyline class="cls-5" points="280.15 355.86 280.15 360.64 275.36 360.64"/><line class="cls-6" x1="265.98" y1="360.64" x2="26.61" y2="360.64"/><polyline class="cls-5" points="21.92 360.64 17.14 360.64 17.14 355.86"/><line class="cls-7" x1="17.14" y1="346.56" x2="17.14" y2="165.24"/><polyline class="cls-5" points="17.14 160.6 17.14 155.81 21.92 155.81"/><line class="cls-6" x1="31.3" y1="155.81" x2="270.67" y2="155.81"/><polyline class="cls-5" points="275.36 155.81 280.15 155.81 280.15 160.6"/><line class="cls-7" x1="280.15" y1="169.89" x2="280.15" y2="351.21"/><text class="cls-8" transform="translate(28.55 351.21) scale(0.82 1)">見える化システム</text><text class="cls-9" transform="translate(52.2 217.32)">蓄電池</text><rect class="cls-10" x="145.45" y="202.04" width="119.55" height="141.87"/><text class="cls-11" transform="translate(188.68 225.29)">EMC<tspan class="cls-12"><tspan x="-40.86" y="12.53">(DC/D</tspan><tspan class="cls-13" x="-9.74" y="12.53">C</tspan><tspan x="0.25" y="12.53">コンバータ</tspan><tspan class="cls-13" x="56.05" y="12.53">ー</tspan><tspan x="69.99" y="12.53">)</tspan></tspan></text><rect class="cls-2" x="155.02" y="254.64" width="100.42" height="84.48"/><rect class="cls-14" x="164.58" y="264.6" width="81.29" height="27.1"/><rect class="cls-14" x="164.58" y="302.86" width="81.29" height="27.1"/><text class="cls-15" transform="translate(173.35 283.47)">インバータ</text><text class="cls-15" transform="translate(166.97 322.52)">システム制御</text><polygon class="cls-16" points="144.66 247.07 138.28 240.69 138.28 245.48 112.78 245.48 112.78 240.69 106.4 247.07 112.78 253.45 112.78 248.66 138.28 248.66 138.28 253.45 144.66 247.07"/><polygon class="cls-16" points="144.66 308.44 138.28 302.06 138.28 306.85 112.78 306.85 112.78 302.06 106.4 308.44 112.78 314.81 112.78 310.03 138.28 310.03 138.28 314.81 144.66 308.44"/><rect class="cls-17" x="31.48" y="168.57" width="161.79" height="28.69"/><text class="cls-11" transform="translate(56.59 187.83)">蓄電池システム</text><polygon class="cls-16" points="210.01 194.07 210.01 99.23 210.01 96.04 206.82 96.04 170.16 96.04 170.16 99.23 206.82 99.23 206.82 194.07 202.04 194.07 208.42 200.45 214.79 194.07 210.01 194.07"/><polygon class="cls-18" points="346.3 96.04 231.53 96.04 228.34 96.04 228.34 99.23 228.34 199.65 231.53 199.65 231.53 99.23 346.3 99.23 346.3 104.01 352.67 97.63 346.3 91.26 346.3 96.04"/><polygon class="cls-18" points="265 308.04 349.49 308.04 349.49 312.82 355.86 306.45 349.49 300.07 349.49 304.85 265 304.85 265 308.04"/><polygon class="cls-18" points="545.55 95.64 418.03 95.64 418.03 90.86 411.65 97.23 418.03 103.61 418.03 98.83 545.55 98.83 545.55 95.64"/><polygon class="cls-18" points="372.6 316.81 439.55 316.81 439.55 321.59 445.92 315.21 439.55 308.84 439.55 313.62 372.6 313.62 372.6 316.81"/><polygon class="cls-18" points="372.6 200.05 439.55 200.05 439.55 204.83 445.92 198.45 439.55 192.08 439.55 196.86 372.6 196.86 372.6 200.05"/><polygon class="cls-19" points="372.6 302.46 439.55 302.46 439.55 307.24 445.92 300.87 439.55 294.49 439.55 299.27 372.6 299.27 372.6 302.46"/><polygon class="cls-18" points="380.57 135.89 380.57 162.99 375.79 162.99 382.16 169.36 388.54 162.99 383.76 162.99 383.76 135.89 380.57 135.89"/><polygon class="cls-19" points="380.57 226.75 380.57 273.77 375.79 273.77 382.16 280.15 388.54 273.77 383.76 273.77 383.76 226.75 380.57 226.75"/><rect class="cls-20" x="543.16" y="52.2" width="5.58" height="98.03"/><polygon class="cls-20" points="552.72 60.97 552.72 57.78 550.33 57.78 550.33 60.97 540.76 60.97 540.76 57.78 538.37 57.78 538.37 60.97 535.98 60.97 535.98 62.56 554.31 62.56 554.31 60.97 552.72 60.97"/><polygon class="cls-20" points="552.72 66.55 552.72 63.36 550.33 63.36 550.33 66.55 540.76 66.55 540.76 63.36 538.37 63.36 538.37 66.55 535.98 66.55 535.98 68.14 554.31 68.14 554.31 66.55 552.72 66.55"/><rect class="cls-20" x="549.53" y="68.94" width="4.78" height="11.16"/><path d="M548.73,243.48V226.75L541,219.57h-4.77l-3.46,5.72v15.29l-3.18-.69v-49h-7.18l-1.31,47.17-19.33-4.18V222l-3.07-1.83v-5.38h0c-.3-4.21-5.34-7.57-11.52-7.57s-11.23,3.36-11.53,7.57h0V220h-9a6,6,0,0,0-6,6v6.53a11.15,11.15,0,0,0-2.61,21.13l-3.37,5.78h4.78l2.8-4.8.39,0,.39,0,2.8,4.8h4.78l-3.37-5.78a11.16,11.16,0,0,0,5-4.43v10.21h82.09V243.48ZM466.64,224h9V240.3h-2.26a11.17,11.17,0,0,0-8.7-7.79V226A2,2,0,0,1,466.64,224Z"/><path class="cls-21" d="M515.65,177.14a6.31,6.31,0,0,0,.41-2.2c0-4.84-5.53-8.77-12.36-8.77a17,17,0,0,0-4.53.62c-.76-2.61-4.5-4.6-9-4.6a16.15,16.15,0,0,0-2.12.15c-1.62-2.9-5.23-4.93-9.44-4.93-5.72,0-10.36,3.74-10.36,8.37,0,4.19,3.83,7.66,8.81,8.26a5.58,5.58,0,0,0,5.53,4.89,5.47,5.47,0,0,0,2-.39c1.1,2.54,4.24,4.37,7.94,4.37a10.46,10.46,0,0,0,4.06-.8,16,16,0,0,0,7.09,1.6,15,15,0,0,0,9.13-2.87c4,1.49,5.23,5.7,5.62,8.45C518.46,187.08,521.09,180.22,515.65,177.14Z"/><text class="cls-22" transform="translate(285.72 191.81)">放電指令</text><text class="cls-22" transform="translate(482.58 22.85)">蓄電枯渇時<tspan x="-7.97" y="19.13">（交流</tspan><tspan class="cls-23" x="39.85" y="19.13">）</tspan></text><text class="cls-24" transform="translate(358.25 356.79)">分電盤</text><text class="cls-22" transform="translate(445.92 356.79)">特定負荷設備</text><text class="cls-25" transform="translate(300.68 251.59)">デマンド<tspan x="-17" y="14.35">コントローラー</tspan></text><text class="cls-22" transform="translate(449.11 179.06)">一般負荷設備</text><rect class="cls-26" x="457.08" y="289.71" width="35.07" height="13.55"/><path class="cls-26" d="M500.51,303.26H448.72a.8.8,0,0,0-.74,1.1l9.1,21.61h35.07l9.1-21.61A.8.8,0,0,0,500.51,303.26Z"/><polygon class="cls-26" points="461.47 321.59 456.67 310.18 452.69 310.18 457.49 321.59 461.47 321.59"/><polygon class="cls-26" points="487.75 321.59 492.56 310.18 496.54 310.18 491.74 321.59 487.75 321.59"/><rect class="cls-26" x="460.27" y="305.65" width="28.69" height="3.99"/><rect x="464.25" y="320.79" width="20.72" height="4.78"/><line class="cls-26" x1="461.47" y1="311.94" x2="488.08" y2="311.94"/><line class="cls-26" x1="462.27" y1="314.34" x2="487.28" y2="314.34"/><line class="cls-26" x1="463.07" y1="316.73" x2="486.48" y2="316.73"/><line class="cls-26" x1="464.66" y1="319.12" x2="484.89" y2="319.12"/><rect class="cls-27" x="20.32" y="15.54" width="214.39" height="27.9"/><rect class="cls-28" x="255.84" y="15.94" width="180.92" height="27.9"/><text class="cls-29" transform="translate(27.9 36.4)">通常時システムフロー</text><rect class="cls-16" x="265.8" y="27.5" width="33.47" height="3.19"/><text class="cls-30" transform="translate(307.64 36.4)">直流</text><rect class="cls-18" x="349.48" y="27.5" width="33.47" height="3.19"/><rect class="cls-19" x="445.92" y="27.5" width="33.47" height="3.19"/><text class="cls-31" transform="translate(391.33 36.4)">交流</text><circle class="cls-1" cx="281.34" cy="208.42" r="3.19"/><circle class="cls-1" cx="291.3" cy="208.42" r="3.19"/><circle class="cls-1" cx="301.27" cy="208.42" r="3.19"/><circle class="cls-1" cx="311.23" cy="208.42" r="3.19"/><circle class="cls-1" cx="321.19" cy="208.42" r="3.19"/><circle class="cls-1" cx="331.15" cy="208.42" r="3.19"/><circle class="cls-1" cx="341.12" cy="208.42" r="3.19"/><circle class="cls-1" cx="351.08" cy="208.42" r="3.19"/><polygon class="cls-1" points="274.17 206.22 274.17 199.65 265.4 208.42 274.17 217.18 274.17 210.61 274.17 206.22"/><path class="cls-2" d="M119.56,99.35l.12-.14,2.42-2.52.71-.74h0l-.22-.13-.21-.16a2.48,2.48,0,0,1-.86-1.4c0-.08,0-.17,0-.25a1.28,1.28,0,0,1,0-.19s0,0,0-.06h0v0L105.21,99.2l-.18.06-.09.15-.38.61-.55.87,1-.1,14.33-1.42Z"/><path class="cls-2" d="M122.23,92l.21-.18c.07,0,.14-.11.21-.15a2.43,2.43,0,0,1,1.32-.38,2.6,2.6,0,0,1,.4,0l.26.06.2.07h0l1.3-16.81,0-.18-.1-.16-.42-.58-.36-.52-.21-.32h0v0l-.32,1-4.28,13.75,0,.18.07.17Z"/><path class="cls-2" d="M126.44,93.43a2.11,2.11,0,0,1,0,.25v0a2.5,2.5,0,0,1-.53,1.52,1.46,1.46,0,0,1-.16.19l-.17.16h0l14.58,9,.15.1.19,0,.71-.09.63-.09.38,0h0l-.73-.72L131.24,93.63l-.13-.13h-.19l-3.45-.24-1.06-.08h0A2.17,2.17,0,0,1,126.44,93.43Z"/><path class="cls-2" d="M125.3,93.1a1.36,1.36,0,0,0-.52-.59,1.09,1.09,0,0,0-.23-.14,1,1,0,0,0-.26-.08,1.12,1.12,0,0,0-.32,0,1.41,1.41,0,0,0-.91.33.84.84,0,0,0-.2.18.81.81,0,0,0-.17.24,1.28,1.28,0,0,0-.14.37.77.77,0,0,0,0,.27.25.25,0,0,0,0,.09.55.55,0,0,0,0,.18,1.4,1.4,0,0,0,.58,1l.08.06.14.08a.64.64,0,0,0,.26.1,1.27,1.27,0,0,0,.39.06,1.44,1.44,0,0,0,.46-.08.4.4,0,0,0,.2-.09.65.65,0,0,0,.23-.15.61.61,0,0,0,.19-.17,1.41,1.41,0,0,0,.39-1,.41.41,0,0,0,0-.12,1,1,0,0,0,0-.25A1.14,1.14,0,0,0,125.3,93.1Z"/><path class="cls-2" d="M156.2,119.19v0H150l-.52-6.26-.37-4.72h0v0l-2.25,3-.67,8H126.31l-1.57-20-.24-3h0v0a2.39,2.39,0,0,1-.53.06,2.44,2.44,0,0,1-.77-.13l-.09,0h0l-1.81,23.12h-6v2.44h0v0H156.2V119.2Z"/><path class="cls-2" d="M148.47,102h-.29s0,0-.07,0a1.33,1.33,0,0,1-.38-.07l-.16-.05-.23-.1-.17-.11-.11-.09,0,0h0l-5.18,11.89-.06.13,0,.14.16.52.21.77.48-.64,4.42-6,1.86-2.52.3-.41.09-.11v-.14l-.18-2.42-.06-.94h0v0l-.19.09-.19,0h0Z"/><path class="cls-2" d="M147.39,99.34a.59.59,0,0,0-.13.19.11.11,0,0,0,0,.06.6.6,0,0,0-.09.22.51.51,0,0,0,0,.22v.06a.71.71,0,0,0,0,.14,1.18,1.18,0,0,0,.45.77l.06,0a.6.6,0,0,0,.11.06,1,1,0,0,0,.21.08.92.92,0,0,0,.29,0,1,1,0,0,0,.35-.06.39.39,0,0,0,.16-.07.58.58,0,0,0,.18-.11.4.4,0,0,0,.15-.14,1.08,1.08,0,0,0,.29-.75V100h0a.58.58,0,0,0,0-.18.83.83,0,0,0-.06-.21,1.16,1.16,0,0,0-.4-.45.87.87,0,0,0-.18-.11l-.2-.05a.66.66,0,0,0-.25,0,1,1,0,0,0-.69.25A.65.65,0,0,0,147.39,99.34Z"/><path class="cls-2" d="M164.56,99.93h0l-.78-.18L153,97.15l-.15,0-.12.08-2.37,1.21-.73.37h0a1.31,1.31,0,0,1,.12.15l.13.17a2.47,2.47,0,0,1,.22.53,1.87,1.87,0,0,1,0,.71,1.29,1.29,0,0,1,0,.19.74.74,0,0,1,0,.14s0,0,0,0h0v0h.44l12.77.12h.14l.11-.09.44-.34.37-.31.24-.17Z"/><path class="cls-2" d="M138.05,88.38l4.9,10,.06.13.13.05,3,1.28.22.09a1.38,1.38,0,0,1,0-.2,1.8,1.8,0,0,1,.05-.19v0a1.85,1.85,0,0,1,.23-.44,1.82,1.82,0,0,1,.54-.53l.17-.09a.55.55,0,0,1,.15-.08h0l-8.33-10.23-.08-.12-.14,0-.54-.11-.48-.1-.29-.07h0Z"/><rect class="cls-32" x="356.26" y="172.55" width="51.81" height="51.81"/><rect class="cls-18" x="356.26" y="280.54" width="51.81" height="51.81"/><line class="cls-26" x1="320.79" y1="235.87" x2="375.79" y2="205.23"/><path d="M517.57,301.33a.45.45,0,0,0-.51.17,3.2,3.2,0,0,0-.24.36c-.29.5-.7,1.18-1.3,1.18s-1.3-.87-1.62-1.34l-.15-.2a.46.46,0,0,0-.52-.17.51.51,0,0,0-.33.53l1.32,6.9.65-.11h0l-.62-3.22-.29-1.5-.23-1.3a2.39,2.39,0,0,0,1.76,1,1.79,1.79,0,0,0,1.34-.69l.12-.15.1-.1-.92,5.77,0,.14h0l.68.09,1.09-6.87v0A.5.5,0,0,0,517.57,301.33Z"/><path d="M523.34,293.79a11.22,11.22,0,1,0-15.87,15.87v0h0a12,12,0,0,0,1,.87l.22,2.41.25,2.73-.14,0a.85.85,0,0,0-.64,1l.08.32a.83.83,0,0,0,.88.64l.15,1.57-.47.1a.85.85,0,0,0-.64,1l.08.32a.84.84,0,0,0,1,.64l.19,0h0l0,.21.21,2.31h1.68a4.22,4.22,0,0,0,8,0h1.67l.21-2.31.27-2.92.4-.09a.86.86,0,0,0,.64-1l-.07-.32a.84.84,0,0,0-.78-.65l.15-1.65.06,0a.85.85,0,0,0,.64-1l-.07-.32a.84.84,0,0,0-.46-.56l.22-2.4a11.88,11.88,0,0,0,1-.87h0l0,0a11.24,11.24,0,0,0,0-15.87Zm-5,16.23v1.07h-5.94V310a12.85,12.85,0,0,1-3.16-2.16,8.68,8.68,0,1,1,12.27,0A12.69,12.69,0,0,1,518.37,310Zm.78,7-6.53,1.46-.82.18-.14-1.54,7.64-1.71ZM512,321.28l0-.55,7-1.56-.2,2.11h-1.69v1.26h0v0a1.66,1.66,0,0,1-3.32,0v-1.26Zm-.56-6.15-.22-2.4h8.29l-.06.61-7.09,1.59Z"/><path d="M541.48,301.33a.45.45,0,0,0-.51.17,3.2,3.2,0,0,0-.24.36c-.29.5-.7,1.18-1.3,1.18s-1.3-.87-1.62-1.34l-.15-.2a.46.46,0,0,0-.52-.17.51.51,0,0,0-.33.53l1.32,6.9.65-.11h0l-.62-3.22-.29-1.5-.23-1.3a2.39,2.39,0,0,0,1.76,1,1.79,1.79,0,0,0,1.34-.69l.12-.15.1-.1-.92,5.77,0,.14h0l.68.09,1.09-6.87v0A.5.5,0,0,0,541.48,301.33Z"/><path d="M547.25,293.79a11.22,11.22,0,1,0-15.87,15.87v0h0a12,12,0,0,0,1,.87l.22,2.41.25,2.73-.14,0a.85.85,0,0,0-.64,1l.08.32a.83.83,0,0,0,.88.64l.15,1.57-.47.1a.85.85,0,0,0-.64,1l.08.32a.84.84,0,0,0,1,.64l.19,0h0l0,.21.21,2.31h1.68a4.22,4.22,0,0,0,8,0H545l.21-2.31.27-2.92.4-.09a.86.86,0,0,0,.64-1l-.07-.32a.84.84,0,0,0-.78-.65l.15-1.65.06,0a.85.85,0,0,0,.64-1l-.07-.32A.84.84,0,0,0,546,313l.22-2.4a11.88,11.88,0,0,0,1-.87h0l0,0a11.24,11.24,0,0,0,0-15.87Zm-5,16.23v1.07h-5.94V310a12.85,12.85,0,0,1-3.16-2.16,8.68,8.68,0,1,1,12.27,0A12.69,12.69,0,0,1,542.28,310Zm.78,7-6.53,1.46-.82.18-.14-1.54,7.64-1.71ZM536,321.28l-.05-.55,7-1.56-.2,2.11H541v1.26h0v0a1.66,1.66,0,0,1-3.32,0v-1.26Zm-.56-6.15-.22-2.4h8.29l-.06.61-7.09,1.59Z"/><path class="cls-2" d="M398.83,88.87h-5.51v-12h-6.38v12h-4.78v0h-4.78v-12H371v12h-5.51s-4.35,19.83,11.49,23.32v2.13h1.6v3.19h7.17v-3.19h1.59v-2.18C403.19,108.69,398.83,88.87,398.83,88.87Z"/><rect class="cls-33" x="46.62" y="283.33" width="58.98" height="50.21" rx="7.97"/><path class="cls-2" d="M81.56,293.91H57.28A2.29,2.29,0,0,0,55,296.19v19.1a2.29,2.29,0,0,0,2.29,2.28H67v.51a2.28,2.28,0,0,1-2.29,2.29H61.35v2.69H77.49v-2.69H74.13a2.28,2.28,0,0,1-2.29-2.29v-.51h9.72a2.29,2.29,0,0,0,2.29-2.28v-19.1A2.29,2.29,0,0,0,81.56,293.91Zm-.94,18.6a.76.76,0,0,1-.76.76H59a.76.76,0,0,1-.76-.76V297.9a.76.76,0,0,1,.76-.76H79.86a.76.76,0,0,1,.76.76v14.61Z"/><path class="cls-2" d="M94.76,293.82H88.05a2.48,2.48,0,0,0-2.48,2.48v24.19A2.48,2.48,0,0,0,88.05,323h6.71a2.48,2.48,0,0,0,2.47-2.48V296.3A2.48,2.48,0,0,0,94.76,293.82ZM91.4,315.68a1.9,1.9,0,1,1,1.9-1.89A1.89,1.89,0,0,1,91.4,315.68Zm3-11.8H88.56v-1.17h5.83Zm0-3.5H88.56v-1.17h5.83Z"/><rect class="cls-33" x="46.62" y="221.96" width="58.98" height="50.21" rx="7.97"/><rect class="cls-34" x="8.37" y="68.14" width="81.29" height="58.18" rx="7.97"/><rect class="cls-18" x="352.67" y="72.13" width="58.98" height="50.21" rx="7.97"/><path class="cls-2" d="M96.84,239.1v-4H92.05v-3.19H85.68v3.19H66.55v-3.19H60.17v3.19H55.39v4h14v3.19h-14v19.92H96.84V242.29h-14V239.1ZM81.12,246,70.26,258.3l3.23-8H68.94l2.39-12.79h9.79L75.21,246Z"/><path class="cls-2" d="M32.35,95.9,33.29,92a7.22,7.22,0,0,1-3.63-6.11,6.83,6.83,0,0,1,13.28-2.24h2.63C46,83,47.22,82,47,81.55s-2.58-.15-3-.7,1-2.52.48-3-2.44.85-3,.47-.08-2.69-.71-3S38.94,77.1,38.27,77s-1.09-2.45-1.78-2.45S35.36,76.84,34.71,77s-2-1.84-2.58-1.59-.14,2.58-.7,3-2.52-1-3-.48.85,2.44.48,3-2.69.07-3,.7,1.72,1.91,1.59,2.58-2.46,1.09-2.46,1.78,2.33,1.13,2.46,1.78-1.85,2-1.59,2.58,2.57.14,3,.7-1,2.52-.48,3,2.43-.85,3-.48A4.89,4.89,0,0,1,32.35,95.9Z"/><path class="cls-2" d="M31.28,105.92H72.93L68,85.63H36.18Zm38.09-2.8H59.44l-.59-6.3h9ZM65.82,88.43l1.52,6.29H58.66l-.59-6.29Zm-17.58,0H56l.59,6.29h-8.9Zm-.79,8.39h9.29l.59,6.3H46.87Zm-9.06-8.39h7.74l-.59,6.29H36.87Zm7,8.39-.59,6.3H34.84l1.52-6.3Z"/><polygon class="cls-2" points="32.92 110.17 71.29 110.17 72.93 106.9 31.28 106.9 32.92 110.17"/><polygon class="cls-2" points="54.22 111.49 49.99 111.49 49.77 115.19 45.5 117.31 45.5 119.95 58.71 119.95 58.71 117.31 54.45 115.19 54.22 111.49"/><rect class="cls-35" x="93.65" y="68.14" width="81.29" height="58.18" rx="7.97"/><rect class="cls-2" y="474.37" width="574.64" height="376.18"/><text class="cls-3" transform="translate(12.59 618.19)">太陽光発電</text><text class="cls-4" transform="translate(101.89 618.19)">風力発電</text><rect class="cls-2" x="17.14" y="630.19" width="258.23" height="204.83"/><polyline class="cls-5" points="275.36 830.24 275.36 835.02 270.58 835.02"/><line class="cls-36" x1="261.37" y1="835.02" x2="26.52" y2="835.02"/><polyline class="cls-5" points="21.92 835.02 17.14 835.02 17.14 830.24"/><line class="cls-7" x1="17.14" y1="820.94" x2="17.14" y2="639.62"/><polyline class="cls-5" points="17.14 634.97 17.14 630.19 21.92 630.19"/><line class="cls-36" x1="31.13" y1="630.19" x2="265.98" y2="630.19"/><polyline class="cls-5" points="270.58 630.19 275.36 630.19 275.36 634.97"/><line class="cls-7" x1="275.36" y1="644.27" x2="275.36" y2="825.59"/><text class="cls-8" transform="translate(28.55 825.59) scale(0.82 1)">見える化システム</text><text class="cls-9" transform="translate(52.2 690.1)">蓄電池</text><rect class="cls-10" x="145.45" y="676.41" width="119.55" height="141.87"/><text class="cls-11" transform="translate(188.68 699.66)">EMC<tspan class="cls-12"><tspan x="-40.86" y="12.53">(DC/D</tspan><tspan class="cls-13" x="-9.74" y="12.53">C</tspan><tspan x="0.25" y="12.53">コンバータ</tspan><tspan class="cls-13" x="56.05" y="12.53">ー</tspan><tspan x="69.99" y="12.53">)</tspan></tspan></text><rect class="cls-2" x="155.02" y="729.02" width="100.42" height="84.48"/><rect class="cls-14" x="164.58" y="738.98" width="81.29" height="27.1"/><rect class="cls-14" x="164.58" y="777.23" width="81.29" height="27.1"/><text class="cls-15" transform="translate(173.35 757.84)">インバータ</text><text class="cls-15" transform="translate(166.97 796.9)">システム制御</text><polygon class="cls-16" points="144.66 719.85 138.28 713.48 138.28 718.26 112.78 718.26 112.78 713.48 106.4 719.85 112.78 726.23 112.78 721.45 138.28 721.45 138.28 726.23 144.66 719.85"/><polygon class="cls-16" points="144.66 782.81 138.28 776.44 138.28 781.22 112.78 781.22 112.78 776.44 106.4 782.81 112.78 789.19 112.78 784.41 138.28 784.41 138.28 789.19 144.66 782.81"/><rect class="cls-17" x="27.5" y="638.96" width="161.79" height="28.69"/><text class="cls-11" transform="translate(52.6 658.22)">蓄電池システム</text><polygon class="cls-37" points="545.55 570.01 418.03 570.01 418.03 565.23 411.65 571.61 418.03 577.99 418.03 573.2 545.55 573.2 545.55 570.01"/><polygon class="cls-18" points="372.6 782.41 439.55 782.41 439.55 787.2 445.92 780.82 439.55 774.45 439.55 779.23 372.6 779.23 372.6 782.41"/><polygon class="cls-37" points="372.6 674.42 439.55 674.42 439.55 679.2 445.92 672.83 439.55 666.45 439.55 671.23 372.6 671.23 372.6 674.42"/><polygon class="cls-37" points="380.57 610.26 380.57 637.36 375.79 637.36 382.16 643.74 388.54 637.36 383.76 637.36 383.76 610.26 380.57 610.26"/><rect class="cls-20" x="543.16" y="526.58" width="5.58" height="98.03"/><polygon class="cls-20" points="552.72 535.35 552.72 532.16 550.33 532.16 550.33 535.35 540.76 535.35 540.76 532.16 538.37 532.16 538.37 535.35 535.98 535.35 535.98 536.94 554.31 536.94 554.31 535.35 552.72 535.35"/><polygon class="cls-20" points="552.72 540.92 552.72 537.74 550.33 537.74 550.33 540.92 540.76 540.92 540.76 537.74 538.37 537.74 538.37 540.92 535.98 540.92 535.98 542.52 554.31 542.52 554.31 540.92 552.72 540.92"/><rect class="cls-20" x="549.53" y="543.32" width="4.78" height="11.16"/><path d="M548.73,717.86V701.12L541,694h-4.77l-3.46,5.71V715l-3.18-.69v-49h-7.18l-1.31,47.16-19.33-4.18V696.37l-3.07-1.83v-5.37h0c-.3-4.22-5.34-7.58-11.52-7.58s-11.23,3.36-11.53,7.58h0v5.21h-9a6,6,0,0,0-6,6v6.53A11.15,11.15,0,0,0,458.06,728l-3.37,5.78h4.78l2.8-4.8.39,0,.39,0,2.8,4.8h4.78L467.26,728a11.18,11.18,0,0,0,5-4.44V733.8h82.09V717.86Zm-82.09-19.49h9v16.3h-2.26a11.16,11.16,0,0,0-8.7-7.78v-6.53A2,2,0,0,1,466.64,698.37Z"/><path class="cls-21" d="M515.65,651.52a6.35,6.35,0,0,0,.41-2.2c0-4.85-5.53-8.77-12.36-8.77a16.58,16.58,0,0,0-4.53.62c-.76-2.62-4.5-4.61-9-4.61a14.58,14.58,0,0,0-2.12.16c-1.62-2.91-5.23-4.94-9.44-4.94-5.72,0-10.36,3.75-10.36,8.37,0,4.2,3.83,7.66,8.81,8.27a5.58,5.58,0,0,0,5.53,4.88,5.68,5.68,0,0,0,2-.38c1.1,2.53,4.24,4.37,7.94,4.37a10.46,10.46,0,0,0,4.06-.81,15.82,15.82,0,0,0,7.09,1.6,15,15,0,0,0,9.13-2.87c4,1.49,5.23,5.71,5.62,8.45C518.46,661.45,521.09,654.59,515.65,651.52Z"/><text class="cls-24" transform="translate(358.25 831.17)">分電盤</text><text class="cls-22" transform="translate(445.92 831.17)">特定負荷設備</text><text class="cls-22" transform="translate(350.28 721.18)">デマンド<tspan x="-23.91" y="16.74">コントローラー</tspan></text><text class="cls-22" transform="translate(449.11 653.44)">一般負荷設備</text><rect class="cls-26" x="457.08" y="764.08" width="35.07" height="13.55"/><path class="cls-26" d="M500.51,777.63H448.72a.8.8,0,0,0-.74,1.11l9.1,21.61h35.07l9.1-21.61A.8.8,0,0,0,500.51,777.63Z"/><polygon class="cls-26" points="461.47 795.96 456.67 784.56 452.69 784.56 457.49 795.96 461.47 795.96"/><polygon class="cls-26" points="487.75 795.96 492.56 784.56 496.54 784.56 491.74 795.96 487.75 795.96"/><rect class="cls-26" x="460.27" y="780.02" width="28.69" height="3.99"/><rect x="464.25" y="795.17" width="20.72" height="4.78"/><line class="cls-26" x1="461.47" y1="786.32" x2="488.08" y2="786.32"/><line class="cls-26" x1="462.27" y1="788.71" x2="487.28" y2="788.71"/><line class="cls-26" x1="463.07" y1="791.1" x2="486.48" y2="791.1"/><line class="cls-26" x1="464.66" y1="793.49" x2="484.89" y2="793.49"/><rect class="cls-38" x="20.32" y="489.92" width="214.39" height="27.9"/><rect class="cls-28" x="379.37" y="490.31" width="180.92" height="27.9"/><text class="cls-39" transform="translate(27.9 510.77)">停電時システムフロー</text><rect class="cls-16" x="389.33" y="501.87" width="33.47" height="3.19"/><text class="cls-30" transform="translate(431.18 510.77)">直流</text><rect class="cls-18" x="473.02" y="501.87" width="33.47" height="3.19"/><text class="cls-31" transform="translate(514.86 510.77)">交流</text><rect class="cls-1" x="499" y="551.15" width="3.99" height="40.92" transform="translate(550.93 -186.83) rotate(45)"/><rect class="cls-1" x="499" y="551.15" width="3.99" height="40.92" transform="translate(1259.43 621.54) rotate(135)"/><text class="cls-22" transform="translate(350.28 540.26)">受電設備</text><text class="cls-22" transform="translate(469.04 547.43)">商用系統</text><polygon class="cls-18" points="265 782.41 349.49 782.41 349.49 787.2 355.86 780.82 349.49 774.45 349.49 779.23 265 779.23 265 782.41"/><polygon class="cls-16" points="210.01 668.44 210.01 573.6 210.01 570.41 206.82 570.41 170.16 570.41 170.16 573.6 206.82 573.6 206.82 668.44 202.04 668.44 208.42 674.82 214.79 668.44 210.01 668.44"/><polygon class="cls-37" points="346.3 570.41 231.53 570.41 228.34 570.41 228.34 573.6 228.34 674.02 231.53 674.02 231.53 573.6 346.3 573.6 346.3 578.38 352.67 572.01 346.3 565.63 346.3 570.41"/><rect class="cls-32" x="356.26" y="646.93" width="51.81" height="51.81"/><rect class="cls-18" x="356.26" y="754.92" width="51.81" height="51.81"/><path d="M517.57,775.7a.46.46,0,0,0-.51.17,3.43,3.43,0,0,0-.24.37c-.29.49-.7,1.17-1.3,1.17s-1.3-.87-1.62-1.33l-.15-.21a.48.48,0,0,0-.52-.17.51.51,0,0,0-.33.53l1.32,6.9.65-.1h0l-.62-3.21-.29-1.5-.23-1.3a2.38,2.38,0,0,0,1.76,1,1.76,1.76,0,0,0,1.34-.69l.12-.14.1-.11-.92,5.77,0,.15h0l.68.09,1.09-6.87v0A.5.5,0,0,0,517.57,775.7Z"/><path d="M523.34,768.17A11.22,11.22,0,1,0,507.47,784h0l0,0a11.88,11.88,0,0,0,1,.86l.22,2.41.25,2.73-.14,0a.85.85,0,0,0-.64,1l.08.32a.81.81,0,0,0,.88.64l.15,1.57-.47.11a.84.84,0,0,0-.64,1l.08.33a.85.85,0,0,0,1,.64l.19-.05h0l0,.21.21,2.32h1.68a4.22,4.22,0,0,0,8,0h1.67l.21-2.32.27-2.92.4-.09a.85.85,0,0,0,.64-1l-.07-.32a.83.83,0,0,0-.78-.64l.15-1.66H522a.85.85,0,0,0,.64-1l-.07-.32a.84.84,0,0,0-.46-.56l.22-2.41c.35-.27.69-.56,1-.86v0h0a11.24,11.24,0,0,0,0-15.87Zm-5,16.22v1.07h-5.94v-1.07a12.76,12.76,0,0,1-3.16-2.15,8.68,8.68,0,1,1,12.27,0A12.6,12.6,0,0,1,518.37,784.39Zm.78,7-6.53,1.47-.82.18-.14-1.54,7.64-1.71ZM512,795.65l0-.54,7-1.56-.2,2.1h-1.69v1.26h0s0,0,0,0a1.66,1.66,0,0,1-3.32-.05v-1.26Zm-.56-6.14-.22-2.4h8.29l-.06.6-7.09,1.59Z"/><path d="M541.48,775.7a.46.46,0,0,0-.51.17,3.43,3.43,0,0,0-.24.37c-.29.49-.7,1.17-1.3,1.17s-1.3-.87-1.62-1.33l-.15-.21a.48.48,0,0,0-.52-.17.51.51,0,0,0-.33.53l1.32,6.9.65-.1h0l-.62-3.21-.29-1.5-.23-1.3a2.38,2.38,0,0,0,1.76,1,1.76,1.76,0,0,0,1.34-.69l.12-.14.1-.11-.92,5.77,0,.15h0l.68.09,1.09-6.87v0A.5.5,0,0,0,541.48,775.7Z"/><path d="M547.25,768.17A11.22,11.22,0,1,0,531.38,784h0l0,0a11.88,11.88,0,0,0,1,.86l.22,2.41.25,2.73-.14,0a.85.85,0,0,0-.64,1l.08.32a.81.81,0,0,0,.88.64l.15,1.57-.47.11a.84.84,0,0,0-.64,1l.08.33a.85.85,0,0,0,1,.64l.19-.05h0l0,.21.21,2.32h1.68a4.22,4.22,0,0,0,8,0H545l.21-2.32.27-2.92.4-.09a.85.85,0,0,0,.64-1l-.07-.32a.83.83,0,0,0-.78-.64l.15-1.66h.06a.85.85,0,0,0,.64-1l-.07-.32a.84.84,0,0,0-.46-.56l.22-2.41c.35-.27.69-.56,1-.86v0h0a11.24,11.24,0,0,0,0-15.87Zm-5,16.22v1.07h-5.94v-1.07a12.76,12.76,0,0,1-3.16-2.15,8.68,8.68,0,1,1,12.27,0A12.6,12.6,0,0,1,542.28,784.39Zm.78,7-6.53,1.47-.82.18-.14-1.54,7.64-1.71ZM536,795.65l-.05-.54,7-1.56-.2,2.1H541v1.26h0s0,0,0,0a1.66,1.66,0,0,1-3.32-.05v-1.26Zm-.56-6.14-.22-2.4h8.29l-.06.6-7.09,1.59Z"/><path class="cls-2" d="M398.83,563.24h-5.51v-12h-6.38v12h-4.78v.06h-4.78v-12H371v12h-5.51s-4.35,19.82,11.49,23.32v2.12h1.6v3.19h7.17v-3.19h1.59v-2.18C403.19,583.06,398.83,563.24,398.83,563.24Z"/><path class="cls-2" d="M119.56,573.72l.12-.14,2.42-2.52.71-.74h0v0l-.22-.13-.21-.15a2.51,2.51,0,0,1-.86-1.4c0-.08,0-.18,0-.26a1.15,1.15,0,0,1,0-.19s0,0,0,0h0v0l-16.27,5.47-.18.06-.09.16-.38.61-.55.87,1-.1,14.33-1.42Z"/><path class="cls-2" d="M122.23,566.32l.21-.18.21-.14a2.44,2.44,0,0,1,1.32-.39,2.6,2.6,0,0,1,.4,0l.26.06.2.07h0l1.3-16.82,0-.18-.1-.15-.42-.58-.36-.52-.21-.33v0l-.32,1L120.48,562l0,.17.07.17Z"/><path class="cls-2" d="M126.44,567.81a2.11,2.11,0,0,1,0,.25v0a2.46,2.46,0,0,1-.53,1.52l-.16.2a1.14,1.14,0,0,1-.17.15h0l14.58,9,.15.11.19,0,.71-.09.63-.08.38,0h0l-.73-.72L131.24,568l-.13-.13h-.19l-3.45-.24-1.06-.08h0A2,2,0,0,1,126.44,567.81Z"/><path class="cls-2" d="M125.3,567.47a1.41,1.41,0,0,0-.52-.59,1.09,1.09,0,0,0-.23-.14l-.26-.07a1.12,1.12,0,0,0-.32,0,1.4,1.4,0,0,0-.91.32.71.71,0,0,0-.2.19.81.81,0,0,0-.17.24,1.13,1.13,0,0,0-.14.36.86.86,0,0,0,0,.28.22.22,0,0,0,0,.08.55.55,0,0,0,0,.18,1.42,1.42,0,0,0,.58,1l.08.06.14.08a.8.8,0,0,0,.26.09,1.27,1.27,0,0,0,.39.06,1.44,1.44,0,0,0,.46-.08.5.5,0,0,0,.2-.08.65.65,0,0,0,.23-.15.54.54,0,0,0,.19-.18,1.39,1.39,0,0,0,.39-1,.37.37,0,0,0,0-.11,1.17,1.17,0,0,0,0-.26A1.14,1.14,0,0,0,125.3,567.47Z"/><path class="cls-2" d="M156.2,593.57v0H150l-.52-6.27-.37-4.72v0l-2.25,3-.67,8H126.31l-1.57-20-.24-3h0v0a2.39,2.39,0,0,1-.53.06,2.44,2.44,0,0,1-.77-.14l-.09,0h0l-1.81,23.12h-6V596h0v0H156.2v-2.44Z"/><path class="cls-2" d="M148.47,576.37h-.29s0,0-.07,0a1.06,1.06,0,0,1-.38-.07l-.16,0a.67.67,0,0,1-.23-.1l-.17-.11-.11-.08,0,0h0l-5.18,11.9-.06.12,0,.14.16.52.21.77.48-.64,4.42-6,1.86-2.51.3-.41.09-.12v-.14l-.18-2.41-.06-.95h0v0l-.19.08-.19.05h0Z"/><path class="cls-2" d="M147.39,573.72a.59.59,0,0,0-.13.19.08.08,0,0,0,0,.05.65.65,0,0,0-.09.23.46.46,0,0,0,0,.21v.06a.61.61,0,0,0,0,.14,1.14,1.14,0,0,0,.45.77s0,0,.06,0l.11.06a.65.65,0,0,0,.21.07.93.93,0,0,0,.29.05,1,1,0,0,0,.35-.07.38.38,0,0,0,.16-.06,1.65,1.65,0,0,0,.33-.25,1.11,1.11,0,0,0,.29-.76v-.08h0a.58.58,0,0,0,0-.19.66.66,0,0,0-.06-.2,1.12,1.12,0,0,0-.4-.46l-.18-.11-.2,0a1,1,0,0,0-.25,0,1,1,0,0,0-.69.25A.52.52,0,0,0,147.39,573.72Z"/><path class="cls-2" d="M164.56,574.31l0,0-.78-.18L153,571.53l-.15,0-.12.07-2.37,1.21-.73.37h0a.57.57,0,0,1,.12.15,1.09,1.09,0,0,1,.13.17,2.27,2.27,0,0,1,.22.53,1.82,1.82,0,0,1,0,.7,1.29,1.29,0,0,1,0,.19.57.57,0,0,1,0,.14.06.06,0,0,1,0,0h0v0h.44l12.77.13h.14l.11-.09.44-.35.37-.3.24-.18Z"/><path class="cls-2" d="M138.05,562.75l4.9,10,.06.13.13,0,3,1.28.22.1a1.38,1.38,0,0,1,0-.2,1.33,1.33,0,0,1,.05-.19v0a1.9,1.9,0,0,1,.77-1,1,1,0,0,1,.17-.1.51.51,0,0,1,.15-.07h0l-8.33-10.24-.08-.11-.14,0-.54-.12-.48-.1-.29-.07v0h0Z"/><rect class="cls-33" x="46.62" y="757.71" width="58.98" height="50.21" rx="7.97"/><path class="cls-2" d="M81.56,768.28H57.28A2.3,2.3,0,0,0,55,770.57v19.09A2.3,2.3,0,0,0,57.28,792H67v.51a2.28,2.28,0,0,1-2.29,2.28H61.35v2.7H77.49v-2.7H74.13a2.28,2.28,0,0,1-2.29-2.28V792h9.72a2.3,2.3,0,0,0,2.29-2.29V770.57A2.3,2.3,0,0,0,81.56,768.28Zm-.94,18.6a.77.77,0,0,1-.76.77H59a.77.77,0,0,1-.76-.77V772.27a.76.76,0,0,1,.76-.76H79.86a.76.76,0,0,1,.76.76v14.61Z"/><path class="cls-2" d="M94.76,768.19H88.05a2.48,2.48,0,0,0-2.48,2.48v24.2a2.48,2.48,0,0,0,2.48,2.47h6.71a2.48,2.48,0,0,0,2.47-2.47v-24.2A2.48,2.48,0,0,0,94.76,768.19ZM91.4,790.06a1.9,1.9,0,1,1,1.9-1.9A1.9,1.9,0,0,1,91.4,790.06Zm3-11.81H88.56v-1.17h5.83Zm0-3.5H88.56v-1.16h5.83Z"/><rect class="cls-33" x="46.62" y="694.75" width="58.98" height="50.21" rx="7.97"/><rect class="cls-18" x="352.67" y="546.5" width="58.98" height="50.21" rx="7.97"/><path class="cls-2" d="M96.84,711.88v-4H92.05v-3.19H85.68v3.19H66.55v-3.19H60.17v3.19H55.39v4h14v3.19h-14V735H96.84V715.07h-14v-3.19Zm-15.72,6.91L70.26,731.08l3.23-8H68.94l2.39-12.79h9.79l-5.91,8.54Z"/><rect class="cls-34" x="8.37" y="542.52" width="81.29" height="58.18" rx="7.97"/><path class="cls-2" d="M32.35,570.28l.94-3.89a7.22,7.22,0,0,1-3.63-6.11A6.83,6.83,0,0,1,42.94,558h2.63c.43-.69,1.65-1.63,1.45-2.12s-2.58-.14-3-.7,1-2.52.48-3-2.44.85-3,.48-.08-2.69-.71-3-1.91,1.72-2.58,1.59-1.09-2.46-1.78-2.46-1.13,2.33-1.78,2.46-2-1.85-2.58-1.59-.14,2.57-.7,3-2.52-1-3-.48.85,2.43.48,3-2.69.08-3,.7,1.72,1.92,1.59,2.58-2.46,1.1-2.46,1.78,2.33,1.14,2.46,1.78-1.85,2-1.59,2.58,2.57.15,3,.7-1,2.52-.48,3,2.43-.85,3-.48A4.81,4.81,0,0,1,32.35,570.28Z"/><path class="cls-2" d="M31.28,580.3H72.93L68,560H36.18Zm38.09-2.8H59.44l-.59-6.3h9Zm-3.55-14.7,1.52,6.3H58.66l-.59-6.3Zm-17.58,0H56l.59,6.3h-8.9Zm-.79,8.4h9.29l.59,6.3H46.87Zm-9.06-8.4h7.74l-.59,6.3H36.87Zm7,8.4-.59,6.3H34.84l1.52-6.3Z"/><polygon class="cls-2" points="32.92 584.54 71.29 584.54 72.93 581.28 31.28 581.28 32.92 584.54"/><polygon class="cls-2" points="54.22 585.87 49.99 585.87 49.77 589.57 45.5 591.68 45.5 594.32 58.71 594.32 58.71 591.68 54.45 589.57 54.22 585.87"/><rect class="cls-35" x="93.65" y="542.52" width="81.29" height="58.18" rx="7.97"/></g></g></svg>