<svg xmlns="http://www.w3.org/2000/svg" viewBox="0 0 574.64 387.83"><defs><style>.cls-1,.cls-25{fill:#fff;}.cls-2,.cls-3,.cls-4,.cls-5,.cls-6,.cls-7,.cls-8{fill:none;stroke-miterlimit:10;}.cls-2{stroke:#000;}.cls-2,.cls-5,.cls-6,.cls-7,.cls-8{stroke-width:1.24px;}.cls-3,.cls-6{stroke:#7800b9;}.cls-3,.cls-4{stroke-width:2.47px;}.cls-4,.cls-5,.cls-8{stroke:red;}.cls-4{stroke-dasharray:3.71 3.71 3.71 3.71;}.cls-5,.cls-6,.cls-7{stroke-dasharray:1.86 1.86 1.86 1.86 1.86 1.86;}.cls-7{stroke:#f7931e;}.cls-13,.cls-9{fill:red;}.cls-10{fill:#ff99bc;}.cls-11{writing-mode:tb;text-orientation:upright;glyph-orientation-vertical:0deg;}.cls-11,.cls-23{font-size:10.52px;}.cls-11,.cls-13,.cls-14,.cls-15,.cls-23,.cls-24{font-family:NotoSansCJKjp-Medium-90ms-RKSJ-H, Noto Sans CJK JP;}.cls-12{letter-spacing:-0.5em;}.cls-13,.cls-14,.cls-15,.cls-24{font-size:11.13px;}.cls-14{fill:#7800b9;}.cls-15{fill:#2e3192;}.cls-16{letter-spacing:0.25em;}.cls-17{letter-spacing:0em;}.cls-18{letter-spacing:-0.5em;}.cls-19{font-size:13.61px;}.cls-19,.cls-21,.cls-22,.cls-25{font-family:NotoSansCJKjp-Bold-90ms-RKSJ-H, Noto Sans CJK JP;}.cls-20{fill:#ffc000;}.cls-21,.cls-22{font-size:12.99px;}.cls-21{stroke:#fff;stroke-linecap:round;stroke-linejoin:round;stroke-width:2.47px;}.cls-25{font-size:14.85px;}.cls-26{letter-spacing:-0.2em;}</style></defs><g id="Layer_2" data-name="Layer 2"><g id="レイヤ_1" data-name="レイヤ− 1"><rect class="cls-1" width="574.64" height="387.83"/><polyline class="cls-2" points="32.78 69.5 32.78 324.26 553.61 324.26"/><polygon points="26.66 75.46 32.78 65.63 38.91 75.46 26.66 75.46"/><polygon points="546.18 318 556.02 324.12 546.18 330.25 546.18 318"/><path class="cls-3" d="M32.78,160.94h89.16V324.12s161.36-8,163.83-8.66S313,310.51,334,306.18s56.91-8.66,92.78-47,40.21-33.4,54.44-42.06S519.45,197,558.49,203"/><path class="cls-4" d="M121.94,285s61.15,3.21,81.56-11.64,21-24.74,27.84-44.53,16.63-42.78,64.3-48S556,164.63,556,164.63"/><line class="cls-5" x1="32.78" y1="299.07" x2="501.61" y2="299.07"/><line class="cls-6" x1="32.78" y1="284.85" x2="501.61" y2="284.85"/><line class="cls-5" x1="299.07" y1="107.32" x2="299.07" y2="322.34"/><line class="cls-7" x1="426.49" y1="107.32" x2="426.49" y2="322.34"/><line class="cls-6" x1="267.2" y1="322.34" x2="266.58" y2="143.58"/><line class="cls-7" x1="121.94" y1="160.94" x2="556.02" y2="160.94"/><line class="cls-8" x1="40.25" y1="92.6" x2="114.47" y2="92.6"/><path class="cls-9" d="M32.78,92.6a37.37,37.37,0,0,1,10.58,5.89L41.23,92.6l2.13-5.88A37.1,37.1,0,0,1,32.78,92.6Z"/><path class="cls-9" d="M121.94,92.6a37.37,37.37,0,0,0-10.58,5.89l2.13-5.89-2.13-5.88A37.1,37.1,0,0,0,121.94,92.6Z"/><line class="cls-8" x1="129.32" y1="92.6" x2="398.92" y2="92.6"/><path class="cls-9" d="M121.86,92.6a37.45,37.45,0,0,1,10.57,5.89L130.3,92.6l2.13-5.88A37.18,37.18,0,0,1,121.86,92.6Z"/><path class="cls-9" d="M406.39,92.6a37.45,37.45,0,0,0-10.57,5.89l2.12-5.89-2.12-5.88A37.18,37.18,0,0,0,406.39,92.6Z"/><polygon class="cls-10" points="177.83 303.4 159.9 285.46 141.96 303.4 150.93 303.4 150.93 321.03 168.87 321.03 168.87 303.4 177.83 303.4"/><text class="cls-11" transform="translate(19.17 130.5)">操業度（製品供給量など<tspan class="cls-12" x="0" y="115.67">）</tspan></text><text class="cls-13" transform="translate(508.22 303.26)">許容限界</text><text class="cls-13" transform="translate(301.63 337.89)">許容限界</text><text class="cls-14" transform="translate(259.57 337.89)">目標</text><text class="cls-14" transform="translate(508.22 287.79)">目標</text><text class="cls-15" transform="translate(508.22 156.04)">復旧</text><text class="cls-15" transform="translate(42.45 156.04)">100%</text><text class="cls-15" transform="translate(65.34 87.38)">事前</text><text class="cls-15" transform="translate(186.58 87.38)">事後（初動対<tspan class="cls-16" x="66.8" y="0">応&amp;</tspan><tspan class="cls-17" x="91.35" y="0">事業継続対応</tspan><tspan class="cls-18" x="158.16" y="0">）</tspan></text><text class="cls-14" transform="translate(67.81 353.98)">現状の予想復旧曲線</text><text class="cls-13" transform="translate(67.81 370.06)">BC<tspan class="cls-16" x="14.62" y="0">P</tspan><tspan x="24.61" y="0">発動後の復旧曲線</tspan></text><path class="cls-3" d="M13,349.48H62.73"/><path class="cls-4" d="M13,366.18H62.73"/><path class="cls-10" d="M285.77,102.68H125.57a3.71,3.71,0,0,0-3.71,3.71v35.26a3.71,3.71,0,0,0,3.71,3.71h62.31L166.43,287.79,215.1,145.36h70.67a3.71,3.71,0,0,0,3.71-3.71V106.39A3.71,3.71,0,0,0,285.77,102.68Z"/><text class="cls-19" transform="translate(130.29 120.16)">許容限界以上のレベルで<tspan x="0" y="17.32">事業を継続させる</tspan></text><path class="cls-20" d="M460.82,102.68H329.07a3.71,3.71,0,0,0-3.71,3.71v35.26a3.71,3.71,0,0,0,3.71,3.71h36.34L342.68,201l49.95-55.67h68.19a3.71,3.71,0,0,0,3.71-3.71V106.39A3.71,3.71,0,0,0,460.82,102.68Z"/><text class="cls-19" transform="translate(333.79 120.16)">許容される時間内に<tspan x="0" y="17.32">操業度を復活させる</tspan></text><text class="cls-21" transform="translate(130.29 257.48)">重要不可の<tspan x="0" y="14.85">電源確保</tspan></text><text class="cls-22" transform="translate(130.29 257.48)">重要不可の<tspan x="0" y="14.85">電源確保</tspan></text><polygon class="cls-20" points="289.48 202.58 289.48 192.37 270.93 210.93 289.48 229.48 289.48 219.28 376.08 219.28 376.08 202.58 289.48 202.58"/><text class="cls-23" transform="translate(526.87 344.27)">時間軸</text><text class="cls-24" transform="translate(219.1 33.21)">太陽光発電や 蓄電池 から電力を供給することで<tspan class="cls-18" x="238.82" y="0">、</tspan><tspan x="-36.46" y="16.7">下記のように、事業の従来より早い復旧を図ることができます</tspan><tspan class="cls-18" x="275.28" y="16.7">。</tspan></text><polygon class="cls-9" points="120.36 8.82 125.92 22.53 137.95 17.73 139.57 25.43 159.54 18.59 150.02 30.8 174.9 29.56 156.13 37.94 168.45 41.9 155.67 45.38 176.91 55.61 150.02 52.39 153.53 59.55 139.57 57.75 140.27 68.52 125.92 60.65 119.02 73.61 111.15 60.65 98.76 66.07 97.5 57.75 75.39 64.87 87.05 52.39 73.38 51.16 81.4 45.38 56.91 40.87 81.4 37.8 71.16 31.1 87.05 30.8 72.49 18.59 97.5 25.43 96.8 14.66 111.15 22.53 120.36 8.82"/><text class="cls-25" transform="translate(86.23 46.56)">事象発<tspan class="cls-26" x="44.54" y="0">生</tspan><tspan x="56.41" y="0">！</tspan></text></g></g></svg>